<svg width="24" height="24" viewBox="0 0 24 24" fill="none" xmlns="http://www.w3.org/2000/svg">
<g clip-path="url(#clip0_2_5388)">
<path d="M14.3913 4.82617H1V19.174H14.3913V4.82617Z" fill="#66E1FF"/>
<path d="M14.3913 4.82617H1V19.174H14.3913V4.82617Z" fill="#66E1FF"/>
<path d="M1.00488 17.2351L13.4138 4.82617H1.00488V17.2351Z" fill="#C2F3FF"/>
<path d="M1 21.0868V19.1738H14.3913V21.0868C14.3898 21.5937 14.1877 22.0794 13.8293 22.4379C13.4708 22.7963 12.9851 22.9983 12.4782 22.9998H2.91304C2.40613 22.9983 1.92043 22.7963 1.56198 22.4379C1.20355 22.0794 1.00151 21.5937 1 21.0868Z" fill="white"/>
<path d="M14.3913 2.91304V4.82608H1V2.91304C1.00151 2.40613 1.20355 1.92043 1.56198 1.56198C1.92043 1.20355 2.40613 1.00151 2.91304 1H12.4782C12.9851 1.00151 13.4708 1.20355 13.8293 1.56198C14.1877 1.92043 14.3898 2.40613 14.3913 2.91304Z" fill="white" stroke="#191919" stroke-linecap="round" stroke-linejoin="round"/>
<path d="M14.3926 11.5219V4.82617" stroke="#191919" stroke-linecap="round" stroke-linejoin="round"/>
<path d="M1 4.82617V21.0871C1.00151 21.5939 1.20355 22.0796 1.56198 22.4381C1.92043 22.7965 2.40613 22.9986 2.91304 23.0001H7.69564" stroke="#191919" stroke-linecap="round" stroke-linejoin="round"/>
<path d="M7.69564 19.1738H1" stroke="#191919" stroke-linecap="round" stroke-linejoin="round"/>
<path d="M5.78418 2.91309H9.61026" stroke="#191919" stroke-linecap="round" stroke-linejoin="round"/>
<path d="M6.37012 12.5741C6.36956 12.8375 6.44721 13.0952 6.59323 13.3145C6.73925 13.5337 6.94708 13.7047 7.19037 13.8058C7.43367 13.9068 7.70147 13.9333 7.95987 13.882C8.21825 13.8306 8.45559 13.7038 8.6418 13.5175C8.82801 13.3311 8.95471 13.0936 9.00585 12.8352C9.05699 12.5768 9.03026 12.309 8.92906 12.0658C8.82785 11.8226 8.65672 11.6149 8.43735 11.469C8.21798 11.3231 7.96026 11.2457 7.69681 11.2464C7.43404 11.2447 7.17765 11.1653 6.95998 11.018C6.74231 10.8708 6.57312 10.6625 6.47373 10.4191C6.37435 10.1759 6.34922 9.90867 6.40153 9.65114C6.45383 9.39362 6.58123 9.15735 6.76765 8.97213C6.95406 8.78692 7.19115 8.66105 7.44901 8.6104C7.70687 8.55975 7.97395 8.5866 8.21656 8.68755C8.45918 8.78851 8.66648 8.95904 8.8123 9.17766C8.95812 9.39627 9.03594 9.65317 9.03594 9.91596" stroke="#191919" stroke-linecap="round" stroke-linejoin="round"/>
<path d="M7.69629 13.9038V14.7895" stroke="#191919" stroke-linecap="round" stroke-linejoin="round"/>
<path d="M7.69629 7.6958V8.58345" stroke="#191919" stroke-linecap="round" stroke-linejoin="round"/>
<path d="M21.0866 13.4346H11.5214C11.0146 13.4361 10.5289 13.6382 10.1704 13.9966C9.81195 14.3551 9.60991 14.8408 9.6084 15.3477V21.0868C9.60991 21.5936 9.81195 22.0794 10.1704 22.4379C10.5289 22.7963 11.0146 22.9983 11.5214 22.9998H21.0866C21.594 22.9998 22.0806 22.7983 22.4394 22.4395C22.7981 22.0807 22.9997 21.5941 22.9997 21.0868V15.3477C22.9997 14.8403 22.7981 14.3537 22.4394 13.9949C22.0806 13.6362 21.594 13.4346 21.0866 13.4346Z" fill="#FFEF5E"/>
<path d="M11.5214 13.4346C11.0146 13.4361 10.5289 13.6382 10.1704 13.9966C9.81195 14.3551 9.60991 14.8408 9.6084 15.3477V21.0868C9.60922 21.351 9.6651 21.6122 9.77248 21.8536C9.87986 22.095 10.0364 22.3115 10.232 22.489L19.2865 13.4346H11.5214Z" fill="#FFF9BF"/>
<path d="M22.9997 15.3477V16.3042H9.6084V15.3477C9.60991 14.8408 9.81195 14.3551 10.1704 13.9966C10.5289 13.6382 11.0146 13.4361 11.5214 13.4346H21.0866C21.594 13.4346 22.0806 13.6362 22.4394 13.9949C22.7981 14.3537 22.9997 14.8403 22.9997 15.3477Z" stroke="#191919" stroke-linecap="round" stroke-linejoin="round"/>
<path d="M22.9997 16.3042V21.0868C22.9997 21.5941 22.7981 22.0807 22.4394 22.4395C22.0806 22.7983 21.594 22.9998 21.0866 22.9998H11.5214C11.0146 22.9983 10.5289 22.7963 10.1704 22.4379C9.81195 22.0794 9.60991 21.5936 9.6084 21.0868V16.3042H22.9997Z" stroke="#191919" stroke-linecap="round" stroke-linejoin="round"/>
<path d="M16.3051 18.2173H11.5225" stroke="#191919" stroke-linecap="round" stroke-linejoin="round"/>
<path d="M13.4355 20.1304H11.5225" stroke="#191919" stroke-linecap="round" stroke-linejoin="round"/>
</g>
<defs>
<clipPath id="clip0_2_5388">
<rect width="24" height="24" fill="white"/>
</clipPath>
</defs>
</svg>
