<svg width="24" height="24" viewBox="0 0 24 24" fill="none" xmlns="http://www.w3.org/2000/svg">
<g clip-path="url(#clip0_2_5244)">
<path d="M22.5216 1L19.0178 4.82608H22.9998L16.3042 10.5652L17.9542 6.73912H15.3477L17.739 1H22.5216Z" fill="#FFEF5E" stroke="#191919" stroke-linecap="round" stroke-linejoin="round"/>
<path d="M14.3913 8.65234H4.82615C4.29788 8.65234 3.86963 9.08059 3.86963 9.60886V19.174C3.86963 19.7023 4.29788 20.1306 4.82615 20.1306H14.3913C14.9196 20.1306 15.3479 19.7023 15.3479 19.174V9.60886C15.3479 9.08059 14.9196 8.65234 14.3913 8.65234Z" fill="#E3E3E3"/>
<path d="M15.3479 12.4784V19.174C15.3479 19.4277 15.2471 19.671 15.0677 19.8504C14.8884 20.0297 14.645 20.1306 14.3913 20.1306H4.82615C4.57246 20.1306 4.32917 20.0297 4.14978 19.8504C3.97041 19.671 3.86963 19.4277 3.86963 19.174V9.60886C3.86963 9.35517 3.97041 9.11188 4.14978 8.9325C4.32917 8.75312 4.57246 8.65234 4.82615 8.65234H13.4348" stroke="#191919" stroke-linecap="round" stroke-linejoin="round"/>
<path d="M9.60889 20.1304V23" stroke="#191919" stroke-linecap="round" stroke-linejoin="round"/>
<path d="M13.4346 20.1304V23" stroke="#191919" stroke-linecap="round" stroke-linejoin="round"/>
<path d="M9.60889 5.78271V8.65228" stroke="#191919" stroke-linecap="round" stroke-linejoin="round"/>
<path d="M5.78223 20.1304V23" stroke="#191919" stroke-linecap="round" stroke-linejoin="round"/>
<path d="M5.78223 5.78271V8.65228" stroke="#191919" stroke-linecap="round" stroke-linejoin="round"/>
<path d="M15.3477 18.2173H18.2172" stroke="#191919" stroke-linecap="round" stroke-linejoin="round"/>
<path d="M3.86956 14.3911H1" stroke="#191919" stroke-linecap="round" stroke-linejoin="round"/>
<path d="M18.2172 14.3911H15.3477" stroke="#191919" stroke-linecap="round" stroke-linejoin="round"/>
<path d="M3.86956 10.5654H1" stroke="#191919" stroke-linecap="round" stroke-linejoin="round"/>
<path d="M3.86956 18.2173H1" stroke="#191919" stroke-linecap="round" stroke-linejoin="round"/>
<path d="M11.5213 10.5654H7.69527C6.63872 10.5654 5.78223 11.4219 5.78223 12.4785V16.3046C5.78223 17.3611 6.63872 18.2176 7.69527 18.2176H11.5213C12.5779 18.2176 13.4344 17.3611 13.4344 16.3046V12.4785C13.4344 11.4219 12.5779 10.5654 11.5213 10.5654Z" fill="#808080"/>
<path d="M11.5213 10.5654H7.69527C7.18836 10.567 6.70266 10.769 6.34421 11.1274C5.98577 11.4859 5.78374 11.9716 5.78223 12.4785H13.4344C13.4329 11.9716 13.2308 11.4859 12.8724 11.1274C12.5139 10.769 12.0282 10.567 11.5213 10.5654Z" fill="#B2B2B2"/>
<path d="M11.5213 10.5654H7.69527C6.63872 10.5654 5.78223 11.4219 5.78223 12.4785V16.3046C5.78223 17.3611 6.63872 18.2176 7.69527 18.2176H11.5213C12.5779 18.2176 13.4344 17.3611 13.4344 16.3046V12.4785C13.4344 11.4219 12.5779 10.5654 11.5213 10.5654Z" stroke="#191919" stroke-linecap="round" stroke-linejoin="round"/>
</g>
<defs>
<clipPath id="clip0_2_5244">
<rect width="24" height="24" fill="white"/>
</clipPath>
</defs>
</svg>
