<svg width="24" height="24" viewBox="0 0 24 24" fill="none" xmlns="http://www.w3.org/2000/svg">
<path fill-rule="evenodd" clip-rule="evenodd" d="M22 6.99V11C22 11.1978 21.9413 11.391 21.8314 11.5555C21.7216 11.7199 21.5654 11.848 21.3827 11.9237C21.2 11.9993 20.999 12.0192 20.805 11.9806C20.6111 11.942 20.4329 11.8468 20.293 11.707L19 10.414L13.707 15.707C13.5195 15.8945 13.2652 15.9998 13 15.9998C12.7349 15.9998 12.4806 15.8945 12.293 15.707L9.00004 12.414L3.70704 17.707C3.51844 17.8892 3.26584 17.99 3.00364 17.9877C2.74144 17.9854 2.49063 17.8802 2.30522 17.6948C2.11981 17.5094 2.01465 17.2586 2.01237 16.9964C2.01009 16.7342 2.11088 16.4816 2.29304 16.293L8.29304 10.293C8.48057 10.1055 8.73488 10.0002 9.00004 10.0002C9.26521 10.0002 9.51951 10.1055 9.70704 10.293L13 13.586L17.586 9L16.293 7.707C16.1532 7.56715 16.058 7.38898 16.0195 7.19503C15.9809 7.00108 16.0007 6.80005 16.0764 6.61735C16.152 6.43465 16.2802 6.27848 16.4446 6.1686C16.609 6.05871 16.8023 6.00004 17 6H21L21.048 6.001C21.3035 6.01229 21.5448 6.12137 21.722 6.30566C21.8992 6.48995 21.9987 6.73533 22 6.991" fill="black"/>
</svg>
