<svg width="24" height="24" viewBox="0 0 24 24" fill="none" xmlns="http://www.w3.org/2000/svg">
<path d="M21.1498 17.6867C21.2162 17.554 21.2507 17.4076 21.2507 17.2592C21.2507 17.1107 21.2162 16.9644 21.1498 16.8316L20.6562 15.8425C20.5811 15.692 20.547 15.5243 20.5574 15.3564C20.5678 15.1884 20.6224 15.0262 20.7155 14.886L21.0101 14.4441C21.115 14.287 21.1709 14.1023 21.1709 13.9133C21.1709 13.7243 21.115 13.5395 21.0101 13.3824L20.4075 12.4785H12.5784L11.9749 8.5376L10.8863 9.26265C10.5429 9.49195 10.2532 9.7928 10.0369 10.1446L6.88042 15.2725C6.65801 15.6335 6.32136 15.9099 5.9239 16.0578L2.71191 17.2611V22.0437C2.71191 22.2973 2.81269 22.5407 2.99208 22.72C3.17145 22.8994 3.41475 23.0002 3.66843 23.0002H9.40755L11.289 22.2484C11.6271 22.1134 11.9877 22.0439 12.3517 22.0437H19.451L20.4668 21.025C20.5926 20.8996 20.681 20.7416 20.722 20.5687C20.7631 20.3959 20.7552 20.2151 20.6993 20.0464L20.5319 19.5481C20.452 19.3074 20.4709 19.045 20.5845 18.8183L21.1498 17.6867Z" fill="#FFDDA1"/>
<path d="M20.5328 19.5478C20.5259 19.5131 20.5214 19.4779 20.5194 19.4426C12.6473 20.2078 6.44712 18.576 11.2221 9.03857L10.8863 9.26335C10.5428 9.49202 10.2529 9.7926 10.0369 10.1443L6.88042 15.2722C6.6574 15.6327 6.32095 15.9089 5.9239 16.0575L2.71191 17.2608V22.0434C2.71191 22.297 2.81269 22.5404 2.99208 22.7197C3.17145 22.8991 3.41475 22.9999 3.66843 22.9999H9.40755L11.289 22.2481C11.6271 22.113 11.9877 22.0436 12.3517 22.0434H19.451L20.4678 21.0247C20.5934 20.8991 20.6816 20.7411 20.7225 20.5683C20.7633 20.3955 20.7553 20.2147 20.6993 20.0462L20.5328 19.5478Z" fill="#FFDDA1"/>
<path d="M12.5642 12.4782L10.9218 1.63131C10.9138 1.55126 10.9227 1.47042 10.9478 1.39402C10.9731 1.31763 11.0141 1.24738 11.0682 1.18786C11.1223 1.12833 11.1883 1.08084 11.262 1.04848C11.3356 1.01612 11.4153 0.999601 11.4957 1.00001H19.3774C19.46 1.00006 19.5415 1.01791 19.6166 1.05234C19.6916 1.08678 19.7582 1.13698 19.8121 1.19954C19.8659 1.26209 19.9056 1.33553 19.9285 1.41483C19.9514 1.49413 19.9569 1.57743 19.9447 1.65905L18.3195 12.4782H12.5642Z" fill="#E3E3E3"/>
<path d="M12.2767 10.5652L10.9242 1.54904C10.914 1.48097 10.9187 1.4115 10.9378 1.34538C10.9569 1.27926 10.99 1.21805 11.035 1.16592C11.08 1.1138 11.1356 1.07199 11.1983 1.04335C11.2608 1.01472 11.3288 0.99993 11.3977 1H18.0159" stroke="#191919" stroke-linecap="round" stroke-linejoin="round"/>
<path d="M14.667 12.4783L13.7631 3.43918C13.7564 3.37247 13.7638 3.3051 13.7849 3.24144C13.8059 3.17777 13.84 3.11924 13.8851 3.06963C13.9302 3.02002 13.9852 2.98045 14.0467 2.95349C14.108 2.92651 14.1743 2.91275 14.2414 2.91309H20.8098C20.8786 2.91316 20.9465 2.92804 21.009 2.95674C21.0714 2.98543 21.127 3.02726 21.1719 3.07937C21.2167 3.13148 21.2498 3.19264 21.2688 3.2587C21.2879 3.32475 21.2925 3.39414 21.2823 3.46213L19.9279 12.4783" fill="#78EB7B"/>
<path d="M12.2778 12.478H20.4082L21.0108 13.3819C21.1156 13.5391 21.1716 13.7239 21.1716 13.9128C21.1716 14.1017 21.1156 14.2865 21.0108 14.4437L20.7162 14.8856C20.623 15.0257 20.5685 15.1879 20.5581 15.3559C20.5476 15.5239 20.5818 15.6915 20.6569 15.8421L21.1514 16.8311C21.2178 16.9639 21.2523 17.1102 21.2523 17.2587C21.2523 17.4071 21.2178 17.5535 21.1514 17.6863L20.5851 18.8178C20.4719 19.0446 20.4533 19.3072 20.5335 19.5476L20.6999 20.046C20.756 20.2145 20.764 20.3953 20.7232 20.5682C20.6822 20.7409 20.594 20.899 20.4684 21.0245L19.4517 22.0432H12.3524C11.9873 22.0432 11.6256 22.1129 11.2868 22.2488L9.4082 22.9997" stroke="#191919" stroke-linecap="round" stroke-linejoin="round"/>
<path d="M2.71191 17.261L5.9239 16.0568C6.32152 15.9073 6.65804 15.6296 6.88042 15.2676L10.0369 10.1436C10.2542 9.7914 10.545 9.49026 10.8892 9.2607L11.9749 8.53662" stroke="#191919" stroke-linecap="round" stroke-linejoin="round"/>
<path d="M20.8098 2.91309H14.2414C14.1743 2.91275 14.108 2.92651 14.0467 2.95349C13.9852 2.98045 13.9302 3.02002 13.8851 3.06963C13.84 3.11924 13.8059 3.17777 13.7849 3.24144C13.7638 3.3051 13.7564 3.37247 13.7631 3.43918L14.4002 9.80864L21.1475 3.06135C21.1038 3.01552 21.0514 2.97881 20.9935 2.95337C20.9355 2.92792 20.8731 2.91423 20.8098 2.91309Z" fill="#C9F7CA"/>
<path d="M14.667 12.4783L13.7631 3.43918C13.7564 3.37247 13.7638 3.3051 13.7849 3.24144C13.8059 3.17777 13.84 3.11924 13.8851 3.06963C13.9302 3.02002 13.9852 2.98045 14.0467 2.95349C14.108 2.92651 14.1743 2.91275 14.2414 2.91309H20.8098C20.8786 2.91316 20.9465 2.92804 21.009 2.95674C21.0714 2.98543 21.127 3.02726 21.1719 3.07937C21.2167 3.13148 21.2498 3.19264 21.2688 3.2587C21.2879 3.32475 21.2925 3.39414 21.2823 3.46213L19.9279 12.4783" stroke="#191919" stroke-linecap="round" stroke-linejoin="round"/>
<path d="M17.3001 9.13055C17.5366 9.13055 17.7678 9.06043 17.9644 8.92905C18.161 8.79767 18.3142 8.61093 18.4048 8.39246C18.4953 8.17398 18.5189 7.93357 18.4728 7.70165C18.4267 7.46971 18.3128 7.25666 18.1456 7.08946C17.9784 6.92224 17.7653 6.80836 17.5334 6.76223C17.3015 6.7161 17.0611 6.73977 16.8426 6.83027C16.6241 6.92076 16.4374 7.07402 16.306 7.27064C16.1746 7.46726 16.1045 7.69842 16.1045 7.9349C16.1045 8.25201 16.2305 8.55612 16.4547 8.78035C16.6789 9.00458 16.9831 9.13055 17.3001 9.13055Z" fill="white" stroke="#191919" stroke-linecap="round" stroke-linejoin="round"/>
</svg>
