<svg width="24" height="24" viewBox="0 0 24 24" fill="none" xmlns="http://www.w3.org/2000/svg">
<path d="M8.3997 6.34202C8.273 6.44973 8.17248 6.57767 8.10389 6.71852C8.0353 6.85936 8 7.01035 8 7.16283C8 7.31531 8.0353 7.4663 8.10389 7.60714C8.17248 7.74799 8.273 7.87593 8.3997 7.98364L13.7028 12.501L8.3997 17.0184C8.14415 17.2361 8.00058 17.5313 8.00058 17.8392C8.00058 18.1471 8.14415 18.4423 8.3997 18.66C8.65526 18.8777 9.00186 19 9.36327 19C9.72468 19 10.0713 18.8777 10.3268 18.66L16.6003 13.316C16.727 13.2083 16.8275 13.0804 16.8961 12.9395C16.9647 12.7987 17 12.6477 17 12.4952C17 12.3427 16.9647 12.1917 16.8961 12.0509C16.8275 11.91 16.727 11.7821 16.6003 11.6744L10.3268 6.33038C9.80747 5.88795 8.93274 5.88795 8.3997 6.34202Z" fill="black"/>
</svg>
