<svg width="24" height="24" viewBox="0 0 24 24" fill="none" xmlns="http://www.w3.org/2000/svg">
<g clip-path="url(#clip0_2_5314)">
<path d="M5.30435 5.78302C5.7773 5.78302 6.23962 5.64277 6.63287 5.38001C7.02611 5.11726 7.3326 4.7438 7.51359 4.30685C7.69458 3.8699 7.74194 3.3891 7.64967 2.92524C7.5574 2.46138 7.32966 2.0353 6.99523 1.70087C6.66081 1.36645 6.23473 1.1387 5.77087 1.04643C5.307 0.954171 4.8262 1.00152 4.38925 1.18251C3.95231 1.3635 3.57884 1.66999 3.31609 2.06324C3.05333 2.45648 2.91309 2.91881 2.91309 3.39175C2.91309 4.02595 3.16502 4.63419 3.61347 5.08263C4.06192 5.53108 4.67015 5.78302 5.30435 5.78302Z" fill="#FFDDA1" stroke="#191919" stroke-linecap="round" stroke-linejoin="round"/>
<path d="M12 13.4351H22.5216" stroke="#191919" stroke-linecap="round" stroke-linejoin="round"/>
<path d="M22.9995 6.26123L21.3151 10.8917C21.2481 11.0762 21.1261 11.2357 20.9654 11.3484C20.8047 11.4612 20.6132 11.5219 20.4169 11.5221H15.8257" stroke="#191919" stroke-linecap="round" stroke-linejoin="round"/>
<path d="M16.3042 13.4351V23.0002" stroke="#191919" stroke-linecap="round" stroke-linejoin="round"/>
<path d="M2.43525 17.7393L1.00049 23.0001" stroke="#191919" stroke-linecap="round" stroke-linejoin="round"/>
<path d="M1.00049 8.65234L2.43525 17.7392H5.30477" stroke="#191919" stroke-linecap="round" stroke-linejoin="round"/>
<path d="M12.3639 23.0001C12.0828 23.0003 11.8079 22.9178 11.5731 22.7632C11.3385 22.6084 11.1545 22.3881 11.0439 22.1297L9.5135 18.6088C9.40292 18.3508 9.21912 18.131 8.98483 17.9764C8.75056 17.8219 8.4761 17.7394 8.19544 17.7393H5.30488C4.92436 17.7393 4.55941 17.5882 4.29035 17.3191C4.02128 17.0501 3.87012 16.6851 3.87012 16.3046V8.65248C3.87013 8.35932 3.95994 8.07319 4.12748 7.83261C4.29502 7.59203 4.53223 7.40855 4.8072 7.30685C5.08216 7.20517 5.38167 7.19014 5.66543 7.26382C5.94919 7.33749 6.20357 7.49633 6.39434 7.71893L8.11605 9.7276C8.34073 9.98973 8.61951 10.2001 8.93324 10.3443C9.24695 10.4884 9.58816 10.5629 9.93341 10.5627H12.4787C12.8592 10.5627 13.2242 10.7138 13.4932 10.9829C13.7623 11.252 13.9134 11.6169 13.9134 11.9974C13.9134 12.3779 13.7623 12.7429 13.4932 13.012C13.2242 13.281 12.8592 13.4322 12.4787 13.4322H9.93437C8.77985 13.4342 7.65693 13.0552 6.73964 12.3542V14.8698H8.19544C9.03806 14.8701 9.86209 15.1176 10.5654 15.5818C11.2686 16.046 11.8201 16.7064 12.1515 17.4811L13.682 21.002C13.7751 21.22 13.8127 21.4578 13.7914 21.694C13.7701 21.9302 13.6907 22.1574 13.5601 22.3554C13.4295 22.5533 13.2519 22.7158 13.0432 22.8283C12.8344 22.9409 12.601 22.9999 12.3639 23.0001Z" fill="#66E1FF" stroke="#191919" stroke-linecap="round" stroke-linejoin="round"/>
<path d="M20.6081 2.35379C19.5253 1.47787 18.1748 1 16.7821 1C15.3894 1 14.0388 1.47787 12.9561 2.35379" stroke="#191919" stroke-linecap="round" stroke-linejoin="round"/>
<path d="M14.5513 4.6637C15.1829 4.15307 15.9705 3.87451 16.7828 3.87451C17.5951 3.87451 18.3827 4.15307 19.0143 4.6637" stroke="#191919" stroke-linecap="round" stroke-linejoin="round"/>
<path d="M16.7821 7.21751C16.65 7.21751 16.543 7.11045 16.543 6.97839C16.543 6.84632 16.65 6.73926 16.7821 6.73926" stroke="#191919"/>
<path d="M16.7827 7.21751C16.9148 7.21751 17.0218 7.11045 17.0218 6.97839C17.0218 6.84632 16.9148 6.73926 16.7827 6.73926" stroke="#191919"/>
</g>
<defs>
<clipPath id="clip0_2_5314">
<rect width="24" height="24" fill="white"/>
</clipPath>
</defs>
</svg>
