<svg width="24" height="24" viewBox="0 0 24 24" fill="none" xmlns="http://www.w3.org/2000/svg">
<path d="M21.5331 11.2669V19.0891H13.7109V11.2669C13.7109 11.1385 13.7362 11.0114 13.7854 10.8927C13.8345 10.7741 13.9065 10.6663 13.9973 10.5755C14.0881 10.4847 14.1959 10.4127 14.3145 10.3636C14.4332 10.3144 14.5603 10.2891 14.6887 10.2891H20.5554C20.6838 10.2891 20.8109 10.3144 20.9295 10.3636C21.0482 10.4127 21.156 10.4847 21.2468 10.5755C21.3375 10.6663 21.4096 10.7741 21.4587 10.8927C21.5078 11.0114 21.5331 11.1385 21.5331 11.2669Z" fill="#66E1FF"/>
<path d="M21.2613 10.5991C21.1712 10.5018 21.062 10.4241 20.9405 10.3708C20.8191 10.3175 20.688 10.2897 20.5554 10.2891H14.6887C14.5603 10.2891 14.4332 10.3144 14.3145 10.3636C14.1959 10.4127 14.0881 10.4847 13.9973 10.5755C13.9065 10.6663 13.8345 10.7741 13.7854 10.8927C13.7362 11.0114 13.7109 11.1385 13.7109 11.2669V18.1504L21.2613 10.5991Z" fill="#C2F3FF"/>
<path d="M6.37744 22.5112L8.33299 20.5556L6.37744 18.6001" stroke="#191919" stroke-linecap="round" stroke-linejoin="round"/>
<path d="M21.5331 11.2669V19.0891H13.7109V11.2669C13.7109 11.1385 13.7362 11.0114 13.7854 10.8927C13.8345 10.7741 13.9065 10.6663 13.9973 10.5755C14.0881 10.4847 14.1959 10.4127 14.3145 10.3636C14.4332 10.3144 14.5603 10.2891 14.6887 10.2891H20.5554C20.6838 10.2891 20.8109 10.3144 20.9295 10.3636C21.0482 10.4127 21.156 10.4847 21.2468 10.5755C21.3375 10.6663 21.4096 10.7741 21.4587 10.8927C21.5078 11.0114 21.5331 11.1385 21.5331 11.2669Z" stroke="#191919" stroke-linecap="round" stroke-linejoin="round"/>
<path d="M21.5331 19.0889V22.0222C21.5331 22.2815 21.4301 22.5302 21.2468 22.7136C21.0634 22.897 20.8147 23 20.5554 23H14.6887C14.4294 23 14.1807 22.897 13.9973 22.7136C13.814 22.5302 13.7109 22.2815 13.7109 22.0222V19.0889H21.5331Z" fill="white" stroke="#191919" stroke-linecap="round" stroke-linejoin="round"/>
<path d="M2.4668 15.6665C2.4668 16.9631 2.98187 18.2066 3.89871 19.1235C4.81556 20.0403 6.05906 20.5554 7.35567 20.5554H8.33344" stroke="#191919" stroke-linecap="round" stroke-linejoin="round"/>
<path d="M18.1113 1L16.1558 2.95555L18.1113 4.9111" stroke="#191919" stroke-linecap="round" stroke-linejoin="round"/>
<path d="M22.0224 7.84444C22.0224 7.20242 21.896 6.56669 21.6503 5.97355C21.4046 5.3804 21.0445 4.84146 20.5905 4.38748C20.1365 3.93351 19.5976 3.5734 19.0044 3.32771C18.4113 3.08202 17.7756 2.95557 17.1335 2.95557H16.1558" stroke="#191919" stroke-linecap="round" stroke-linejoin="round"/>
<path d="M7.84447 11.2666C8.1038 11.2666 8.3525 11.1636 8.53586 10.9802C8.71923 10.7968 8.82225 10.5481 8.82225 10.2888C8.82225 10.0295 8.71923 9.78078 8.53586 9.59741C8.3525 9.41404 8.1038 9.31104 7.84447 9.31104C7.58515 9.31104 7.33645 9.41404 7.15308 9.59741C6.96971 9.78078 6.8667 10.0295 6.8667 10.2888C6.8667 10.5481 6.96971 10.7968 7.15308 10.9802C7.33645 11.1636 7.58515 11.2666 7.84447 11.2666Z" fill="#808080" stroke="#191919" stroke-linecap="round" stroke-linejoin="round"/>
<path d="M3.93383 11.2666C4.19315 11.2666 4.44185 11.1636 4.62522 10.9802C4.80859 10.7968 4.9116 10.5481 4.9116 10.2888C4.9116 10.0295 4.80859 9.78078 4.62522 9.59741C4.44185 9.41404 4.19315 9.31104 3.93383 9.31104C3.67451 9.31104 3.42581 9.41404 3.24244 9.59741C3.05907 9.78078 2.95605 10.0295 2.95605 10.2888C2.95605 10.5481 3.05907 10.7968 3.24244 10.9802C3.42581 11.1636 3.67451 11.2666 3.93383 11.2666Z" fill="#808080" stroke="#191919" stroke-linecap="round" stroke-linejoin="round"/>
<path d="M10.7775 1L8.33307 8.33331H3.4442L1.97754 3.44444H9.96302" fill="#FFEF5E"/>
<path d="M10.7775 1L8.33307 8.33331H3.4442L1.97754 3.44444H9.96302" stroke="#191919" stroke-linecap="round" stroke-linejoin="round"/>
<path d="M17.6219 21.2887C17.5571 21.2887 17.4949 21.263 17.449 21.2171C17.4032 21.1713 17.3774 21.1091 17.3774 21.0443C17.3774 20.9794 17.4032 20.9173 17.449 20.8714C17.4949 20.8256 17.5571 20.7998 17.6219 20.7998" stroke="#191919"/>
<path d="M17.6216 21.2887C17.6864 21.2887 17.7486 21.263 17.7944 21.2171C17.8403 21.1713 17.866 21.1091 17.866 21.0443C17.866 20.9794 17.8403 20.9173 17.7944 20.8714C17.7486 20.8256 17.6864 20.7998 17.6216 20.7998" stroke="#191919"/>
</svg>
