<svg width="24" height="24" viewBox="0 0 24 24" fill="none" xmlns="http://www.w3.org/2000/svg">
<path d="M17.6716 13.4164C18.0795 13.4164 18.4834 13.336 18.8602 13.1799C19.2371 13.0238 19.5795 12.795 19.8679 12.5066C20.1564 12.2182 20.3852 11.8757 20.5413 11.4989C20.6973 11.122 20.7777 10.7181 20.7777 10.3102C20.7777 9.90233 20.6973 9.49842 20.5413 9.12157C20.3852 8.74471 20.1564 8.4023 19.8679 8.11387C19.5795 7.82543 19.2371 7.59664 18.8602 7.44054C18.4834 7.28444 18.0795 7.2041 17.6716 7.2041C16.8478 7.2041 16.0577 7.53135 15.4752 8.11387C14.8927 8.69638 14.5654 9.48644 14.5654 10.3102C14.5654 11.134 14.8927 11.9241 15.4752 12.5066C16.0577 13.0891 16.8478 13.4164 17.6716 13.4164Z" fill="#E3E3E3"/>
<path d="M17.6716 9.17004C18.3212 9.17142 18.954 9.37716 19.4803 9.75813C20.0065 10.1391 20.3996 10.676 20.6037 11.2927C20.7146 10.9773 20.7739 10.6447 20.7777 10.3102C20.7777 9.48644 20.4504 8.69638 19.8679 8.11387C19.2854 7.53135 18.4954 7.2041 17.6716 7.2041C16.8478 7.2041 16.0577 7.53135 15.4752 8.11387C14.8927 8.69638 14.5654 9.48644 14.5654 10.3102C14.5693 10.6447 14.6285 10.9764 14.7394 11.2927C14.9437 10.6761 15.3368 10.1393 15.863 9.75831C16.3892 9.37736 17.0219 9.17157 17.6716 9.17004Z" fill="white"/>
<path d="M12.3467 20.1402C12.3654 18.7398 12.9349 17.4031 13.9318 16.4194C14.9288 15.4358 16.2729 14.8843 17.6735 14.8843C19.074 14.8843 20.4182 15.4358 21.4151 16.4194C22.412 17.4031 22.9815 18.7398 23.0002 20.1402H12.3467Z" fill="#E3E3E3"/>
<path d="M17.673 16.509C18.7885 16.5095 19.8757 16.8603 20.7811 17.512C21.6866 18.1636 22.3645 19.0831 22.7192 20.1407H23.0002C22.9815 18.7403 22.412 17.4037 21.4151 16.42C20.4182 15.4364 19.074 14.8848 17.6735 14.8848C16.2729 14.8848 14.9288 15.4364 13.9318 16.42C12.9349 17.4037 12.3654 18.7403 12.3467 20.1407H12.6277C12.9821 19.0831 13.6598 18.1636 14.5651 17.5119C15.4704 16.8602 16.5575 16.5094 17.673 16.509Z" fill="white"/>
<path d="M7.69175 11.9826C8.76902 11.9826 9.80217 11.5546 10.5639 10.7929C11.3257 10.0312 11.7536 8.99802 11.7536 7.92075C11.7536 6.84348 11.3257 5.81033 10.5639 5.04858C9.80217 4.28683 8.76902 3.85889 7.69175 3.85889C6.61447 3.85889 5.58132 4.28683 4.81957 5.04858C4.05783 5.81033 3.62988 6.84348 3.62988 7.92075C3.62988 8.99802 4.05783 10.0312 4.81957 10.7929C5.58132 11.5546 6.61447 11.9826 7.69175 11.9826Z" fill="#FFDDA1"/>
<path d="M7.69175 6.42981C8.54196 6.43204 9.3699 6.70189 10.0581 7.20109C10.7464 7.70029 11.26 8.4035 11.5261 9.21099C11.6724 8.7962 11.7488 8.36039 11.7536 7.92075C11.7536 6.84348 11.3257 5.81033 10.5639 5.04858C9.80217 4.28683 8.76902 3.85889 7.69175 3.85889C6.61447 3.85889 5.58132 4.28683 4.81957 5.04858C4.05783 5.81033 3.62988 6.84348 3.62988 7.92075C3.63453 8.36039 3.71138 8.79627 3.85735 9.21099C4.12349 8.4035 4.6371 7.70029 5.32535 7.20109C6.01359 6.70189 6.84153 6.43204 7.69175 6.42981Z" fill="#FFDDA1"/>
<path d="M1 20.1066C1 18.3323 1.70485 16.6306 2.95949 15.376C4.21413 14.1213 5.9158 13.4165 7.69013 13.4165C9.46446 13.4165 11.1661 14.1213 12.4208 15.376C13.6754 16.6306 14.3803 18.3323 14.3803 20.1066H1Z" fill="#66E1FF"/>
<path d="M7.69013 15.5468C9.09086 15.5477 10.456 15.9883 11.593 16.8064C12.73 17.6245 13.5816 18.7788 14.0276 20.1066H14.3803C14.3803 18.3323 13.6754 16.6306 12.4208 15.376C11.1661 14.1213 9.46446 13.4165 7.69013 13.4165C5.9158 13.4165 4.21413 14.1213 2.95949 15.376C1.70485 16.6306 1 18.3323 1 20.1066H1.35267C1.7987 18.7788 2.65026 17.6245 3.78727 16.8064C4.92428 15.9883 6.28939 15.5477 7.69013 15.5468Z" fill="#C2F3FF"/>
<path d="M7.72397 12.0163C8.80125 12.0163 9.8344 11.5884 10.5961 10.8267C11.3579 10.0649 11.7858 9.03171 11.7858 7.95444C11.7858 6.87717 11.3579 5.84402 10.5961 5.08227C9.8344 4.32052 8.80125 3.89258 7.72397 3.89258C6.6467 3.89258 5.61355 4.32052 4.8518 5.08227C4.09005 5.84402 3.66211 6.87717 3.66211 7.95444C3.66211 9.03171 4.09005 10.0649 4.8518 10.8267C5.61355 11.5884 6.6467 12.0163 7.72397 12.0163Z" stroke="#191919" stroke-linecap="round" stroke-linejoin="round"/>
<path d="M1.03418 20.1399C1.03418 18.3655 1.73903 16.6639 2.99367 15.4092C4.24831 14.1546 5.94998 13.4497 7.72431 13.4497C9.49864 13.4497 11.2003 14.1546 12.4549 15.4092C13.7096 16.6639 14.4144 18.3655 14.4144 20.1399H1.03418Z" stroke="#191919" stroke-linecap="round" stroke-linejoin="round"/>
<path d="M16.2921 20.1065H22.9822C22.9822 19.2044 22.75 18.3175 22.308 17.5311C21.866 16.7447 21.229 16.0852 20.4584 15.6163C19.6878 15.1473 18.8094 14.8845 17.9078 14.8533C17.0063 14.822 16.1118 15.0233 15.3105 15.4378" stroke="#191919" stroke-linecap="round" stroke-linejoin="round"/>
<path d="M17.6716 13.4164C18.0795 13.4164 18.4834 13.336 18.8602 13.1799C19.2371 13.0238 19.5795 12.795 19.8679 12.5066C20.1564 12.2182 20.3852 11.8757 20.5413 11.4989C20.6973 11.122 20.7777 10.7181 20.7777 10.3102C20.7777 9.90233 20.6973 9.49842 20.5413 9.12157C20.3852 8.74471 20.1564 8.4023 19.8679 8.11387C19.5795 7.82543 19.2371 7.59664 18.8602 7.44054C18.4834 7.28444 18.0795 7.2041 17.6716 7.2041C16.8478 7.2041 16.0577 7.53135 15.4752 8.11387C14.8927 8.69638 14.5654 9.48644 14.5654 10.3102C14.5654 11.134 14.8927 11.9241 15.4752 12.5066C16.0577 13.0891 16.8478 13.4164 17.6716 13.4164Z" stroke="#191919" stroke-linecap="round" stroke-linejoin="round"/>
</svg>
