<svg width="24" height="24" viewBox="0 0 24 24" fill="none" xmlns="http://www.w3.org/2000/svg">
<g clip-path="url(#clip0_2_5117)">
<path d="M8.65222 1.68602C8.65217 1.59951 8.62867 1.51463 8.5842 1.44042C8.53973 1.36622 8.47596 1.30546 8.39969 1.26463C8.32343 1.2238 8.23752 1.20442 8.1511 1.20855C8.06469 1.21268 7.98102 1.24018 7.909 1.28811L3.76535 4.05054C3.50324 4.22518 3.28831 4.46185 3.13964 4.7395C2.99097 5.01716 2.91314 5.32723 2.91309 5.64219V13.2274H8.65222V1.68602Z" fill="#FF808C"/>
<path d="M22.9998 14.1835C22.9998 13.6761 22.7982 13.1895 22.4395 12.8308C22.0807 12.472 21.5941 12.2705 21.0867 12.2705H15.3476C14.8403 12.2705 14.3537 12.472 13.9949 12.8308C13.6361 13.1895 13.4346 13.6761 13.4346 14.1835V22.314C13.4346 22.4408 13.485 22.5625 13.5746 22.6521C13.6643 22.7418 13.786 22.7922 13.9128 22.7922H22.5215C22.6484 22.7922 22.77 22.7418 22.8598 22.6521C22.9494 22.5625 22.9998 22.4408 22.9998 22.314V14.1835Z" fill="#808080"/>
<path d="M10.5652 15.1401C10.5652 14.6327 10.3637 14.1461 10.0049 13.7874C9.64613 13.4286 9.15954 13.2271 8.65217 13.2271H2.91304C2.40568 13.2271 1.91908 13.4286 1.56032 13.7874C1.20155 14.1461 1 14.6327 1 15.1401V22.3141C1 22.4409 1.05039 22.5626 1.14008 22.6522C1.22977 22.7419 1.35142 22.7923 1.47826 22.7923H10.087C10.2138 22.7923 10.3355 22.7419 10.4252 22.6522C10.5148 22.5626 10.5652 22.4409 10.5652 22.3141V15.1401Z" fill="#808080"/>
<path d="M8.65217 13.2261H2.91304C2.40568 13.2261 1.91908 13.4276 1.56032 13.7864C1.20155 14.1452 1 14.6318 1 15.1391V18.463C1 17.9557 1.20155 17.4691 1.56032 17.1103C1.91908 16.7515 2.40568 16.55 2.91304 16.55H8.65217C9.15954 16.55 9.64613 16.7515 10.0049 17.1103C10.3637 17.4691 10.5652 17.9557 10.5652 18.463V15.1391C10.5652 14.6318 10.3637 14.1452 10.0049 13.7864C9.64613 13.4276 9.15954 13.2261 8.65217 13.2261Z" fill="#B2B2B2"/>
<path d="M10.5652 15.1401C10.5652 14.6327 10.3637 14.1461 10.0049 13.7874C9.64613 13.4286 9.15954 13.2271 8.65217 13.2271H2.91304C2.40568 13.2271 1.91908 13.4286 1.56032 13.7874C1.20155 14.1461 1 14.6327 1 15.1401V22.3141C1 22.4409 1.05039 22.5626 1.14008 22.6522C1.22977 22.7419 1.35142 22.7923 1.47826 22.7923H10.087C10.2138 22.7923 10.3355 22.7419 10.4252 22.6522C10.5148 22.5626 10.5652 22.4409 10.5652 22.3141V15.1401Z" stroke="#191919" stroke-linecap="round" stroke-linejoin="round"/>
<path d="M21.0867 12.2695H15.3476C14.8403 12.2695 14.3537 12.4711 13.9949 12.8299C13.6361 13.1887 13.4346 13.6752 13.4346 14.1826V17.3238C13.4346 16.8165 13.6361 16.3299 13.9949 15.9711C14.3537 15.6123 14.8403 15.4108 15.3476 15.4108H21.0867C21.5941 15.4108 22.0807 15.6123 22.4395 15.9711C22.7982 16.3299 22.9998 16.8165 22.9998 17.3238V14.1826C22.9998 13.6752 22.7982 13.1887 22.4395 12.8299C22.0807 12.4711 21.5941 12.2695 21.0867 12.2695Z" fill="#B2B2B2"/>
<path d="M22.9998 14.1835C22.9998 13.6761 22.7982 13.1895 22.4395 12.8308C22.0807 12.472 21.5941 12.2705 21.0867 12.2705H15.3476C14.8403 12.2705 14.3537 12.472 13.9949 12.8308C13.6361 13.1895 13.4346 13.6761 13.4346 14.1835V22.314C13.4346 22.4408 13.485 22.5625 13.5746 22.6521C13.6643 22.7418 13.786 22.7922 13.9128 22.7922H22.5215C22.6484 22.7922 22.77 22.7418 22.8598 22.6521C22.9494 22.5625 22.9998 22.4408 22.9998 22.314V14.1835Z" stroke="#191919" stroke-linecap="round" stroke-linejoin="round"/>
<path d="M8.39969 1.26395C8.32339 1.22318 8.23745 1.20388 8.15104 1.20809C8.06463 1.2123 7.98098 1.23987 7.909 1.28787L3.76535 4.0503C3.50324 4.22494 3.28831 4.4616 3.13964 4.73926C2.99097 5.01692 2.91314 5.327 2.91309 5.64195V9.11317C2.91299 8.79805 2.99074 8.48779 3.13942 8.20995C3.2881 7.9321 3.50311 7.6953 3.76535 7.52056L7.909 4.75813C7.98102 4.71019 8.06469 4.6827 8.1511 4.67857C8.23752 4.67444 8.32343 4.69382 8.39969 4.73465C8.47596 4.77549 8.53973 4.83624 8.5842 4.91044C8.62867 4.98465 8.65217 5.06953 8.65222 5.15604V1.68578C8.65225 1.59919 8.62878 1.51423 8.5843 1.43993C8.53983 1.36564 8.47603 1.30482 8.39969 1.26395Z" fill="#FFBFC5"/>
<path d="M8.65222 1.68602C8.65217 1.59951 8.62867 1.51463 8.5842 1.44042C8.53973 1.36622 8.47596 1.30546 8.39969 1.26463C8.32343 1.2238 8.23752 1.20442 8.1511 1.20855C8.06469 1.21268 7.98102 1.24018 7.909 1.28811L3.76535 4.05054C3.50324 4.22518 3.28831 4.46185 3.13964 4.7395C2.99097 5.01716 2.91314 5.32723 2.91309 5.64219V13.2274H8.65222V1.68602Z" stroke="#191919" stroke-linecap="round" stroke-linejoin="round"/>
<path d="M6.73926 4.14014V9.87927" stroke="#191919" stroke-linecap="round" stroke-linejoin="round"/>
<path d="M22.9998 18.0098H13.4346V20.8794H22.9998V18.0098Z" fill="#FFEF5E" stroke="#191919" stroke-linecap="round" stroke-linejoin="round"/>
</g>
<defs>
<clipPath id="clip0_2_5117">
<rect width="24" height="24" fill="white"/>
</clipPath>
</defs>
</svg>
