<svg width="24" height="24" viewBox="0 0 24 24" fill="none" xmlns="http://www.w3.org/2000/svg">
<path d="M23 7.63712C23 5.8208 21.5278 4.34815 19.7115 4.34766H4.2876C2.47139 4.34815 0.999514 5.8209 1 7.63712V16.3616C0.998441 18.1784 2.4707 19.6521 4.2876 19.652H19.7115C21.5285 19.6521 23.0011 18.1786 23 16.3616V7.63712Z" fill="#FF808C"/>
<path d="M4.2876 4.34766C2.47138 4.34815 0.999512 5.8209 1 7.63712V16.3616C1.00273 17.3475 1.45015 18.2795 2.21761 18.8983L16.7683 4.34766H4.2876Z" fill="#FFBFC5"/>
<path d="M23 7.63712C23 5.8208 21.5278 4.34815 19.7115 4.34766H4.2876C2.47139 4.34815 0.999514 5.8209 1 7.63712V16.3616C0.998441 18.1784 2.4707 19.6521 4.2876 19.652H19.7115C21.5285 19.6521 23.0011 18.1786 23 16.3616V7.63712Z" stroke="#191919" stroke-linecap="round" stroke-linejoin="round"/>
<path d="M9.6084 15.7698V7.48438L16.0831 11.6271L9.6084 15.7698Z" fill="white" stroke="#191919" stroke-linecap="round" stroke-linejoin="round"/>
</svg>
