<svg width="24" height="24" viewBox="0 0 24 24" fill="none" xmlns="http://www.w3.org/2000/svg">
<path d="M16.6003 6.34202C16.727 6.44973 16.8275 6.57767 16.8961 6.71852C16.9647 6.85936 17 7.01035 17 7.16283C17 7.31531 16.9647 7.4663 16.8961 7.60714C16.8275 7.74799 16.727 7.87593 16.6003 7.98364L11.2972 12.501L16.6003 17.0184C16.8559 17.2361 16.9994 17.5313 16.9994 17.8392C16.9994 18.1471 16.8559 18.4423 16.6003 18.66C16.3447 18.8777 15.9981 19 15.6367 19C15.2753 19 14.9287 18.8777 14.6732 18.66L8.3997 13.316C8.273 13.2083 8.17247 13.0804 8.10389 12.9395C8.0353 12.7987 8 12.6477 8 12.4952C8 12.3427 8.0353 12.1917 8.10389 12.0509C8.17247 11.91 8.273 11.7821 8.3997 11.6744L14.6732 6.33038C15.1925 5.88795 16.0673 5.88795 16.6003 6.34202Z" fill="black"/>
</svg>
