<svg width="24" height="24" viewBox="0 0 24 24" fill="none" xmlns="http://www.w3.org/2000/svg">
<g clip-path="url(#clip0_2_5372)">
<path d="M17.26 8.93791V20.4156C17.2787 20.7639 17.2136 21.1117 17.0701 21.4297C16.9267 21.7477 16.709 22.0267 16.4354 22.2431C16.1617 22.4596 15.8402 22.6072 15.4977 22.6737C15.1552 22.7401 14.8018 22.7234 14.4671 22.625L3.79289 20.1095C3.01444 19.8945 2.32444 19.4377 1.82246 18.805C1.32048 18.1724 1.03247 17.3966 1 16.5897V4.15558C1 3.42962 1.27738 2.73235 1.77474 2.20438V2.19482L14.4766 5.37029C15.2556 5.59887 15.9431 6.0661 16.4425 6.70614C16.9418 7.34618 17.2277 8.12677 17.26 8.93791Z" fill="#FFDDA1" stroke="#191919" stroke-linecap="round" stroke-linejoin="round"/>
<path d="M23.0004 4.15555V14.6767C22.9979 15.4369 22.6947 16.1653 22.1572 16.7029C21.6196 17.2404 20.8912 17.5436 20.131 17.5461H17.2616V8.93789C17.2294 8.12674 16.9434 7.34616 16.4441 6.70611C15.9448 6.06607 15.2572 5.59884 14.4783 5.37026L1.77637 2.19479C2.0441 1.90723 2.36836 1.67808 2.72881 1.52172C3.08926 1.36536 3.47813 1.28516 3.87103 1.28614H20.131C20.892 1.28614 21.6218 1.58846 22.16 2.12657C22.6981 2.66469 23.0004 3.39454 23.0004 4.15555Z" fill="#FFBC44" stroke="#191919" stroke-linecap="round" stroke-linejoin="round"/>
<path d="M9.6084 4.15576H19.1731" stroke="#191919" stroke-linecap="round" stroke-linejoin="round"/>
<path d="M12.9559 15.6335C13.4632 15.6335 13.9498 15.432 14.3086 15.0732C14.6673 14.7145 14.8688 14.2279 14.8688 13.7206C14.8688 13.2132 14.6673 12.7267 14.3086 12.3679C13.9498 12.0092 13.4632 11.8076 12.9559 11.8076C12.4486 11.8076 11.962 12.0092 11.6033 12.3679C11.2445 12.7267 11.043 13.2132 11.043 13.7206C11.043 14.2279 11.2445 14.7145 11.6033 15.0732C11.962 15.432 12.4486 15.6335 12.9559 15.6335Z" fill="#FFEF5E"/>
<path d="M12.9559 13.3484C13.3269 13.3484 13.6899 13.4562 14.0006 13.6588C14.3114 13.8614 14.5566 14.15 14.7062 14.4894C14.8346 14.1983 14.8884 13.8796 14.8625 13.5624C14.8367 13.2452 14.7322 12.9395 14.5584 12.6729C14.3845 12.4063 14.147 12.1873 13.8672 12.0357C13.5874 11.8841 13.2741 11.8047 12.9559 11.8047C12.6377 11.8047 12.3245 11.8841 12.0446 12.0357C11.7648 12.1873 11.5273 12.4063 11.3535 12.6729C11.1797 12.9395 11.0751 13.2452 11.0493 13.5624C11.0235 13.8796 11.0772 14.1983 11.2056 14.4894C11.3553 14.15 11.6004 13.8614 11.9112 13.6588C12.222 13.4562 12.5849 13.3484 12.9559 13.3484Z" fill="#FFF9BF"/>
<path d="M12.9559 15.6335C13.4632 15.6335 13.9498 15.432 14.3086 15.0732C14.6673 14.7145 14.8688 14.2279 14.8688 13.7206C14.8688 13.2132 14.6673 12.7267 14.3086 12.3679C13.9498 12.0092 13.4632 11.8076 12.9559 11.8076C12.4486 11.8076 11.962 12.0092 11.6033 12.3679C11.2445 12.7267 11.043 13.2132 11.043 13.7206C11.043 14.2279 11.2445 14.7145 11.6033 15.0732C11.962 15.432 12.4486 15.6335 12.9559 15.6335Z" stroke="#191919" stroke-linecap="round" stroke-linejoin="round"/>
<path d="M17.2607 8.93799H19.1737" stroke="#191919" stroke-linecap="round" stroke-linejoin="round"/>
</g>
<defs>
<clipPath id="clip0_2_5372">
<rect width="24" height="24" fill="white"/>
</clipPath>
</defs>
</svg>
