<svg width="24" height="24" viewBox="0 0 24 24" fill="none" xmlns="http://www.w3.org/2000/svg">
<g clip-path="url(#clip0_2_5668)">
<path d="M16.2242 1H2.01975C1.49671 1 1.07275 1.42396 1.07275 1.94699V16.9224C1.07275 17.4454 1.49671 17.8694 2.01975 17.8694H16.2242C16.7473 17.8693 17.1712 17.4453 17.1712 16.9224V1.94699C17.1712 1.42405 16.7473 1.00009 16.2242 1Z" fill="#E3E3E3"/>
<path d="M16.3373 1.22724C16.3231 1.22724 16.3117 1.21973 16.2975 1.21973H2.09299C1.56995 1.21973 1.146 1.64368 1.146 2.16663V16.4186L16.3373 1.22724Z" fill="white"/>
<path d="M11.0892 18.2652H2.09299C1.56995 18.2652 1.146 17.8412 1.146 17.3182V2.16663C1.146 1.64368 1.56995 1.21973 2.09299 1.21973H16.2975C16.8205 1.21973 17.2445 1.64368 17.2445 2.16663V11.6364" stroke="#191919" stroke-linecap="round" stroke-linejoin="round"/>
<path d="M18.6457 13.0757L12.6987 19.0227L15.5396 21.8645L21.4866 15.9175L18.6457 13.0757Z" fill="#FFEF5E"/>
<path d="M12.6989 19.0229L15.5398 21.8638L11.5625 23.0001L12.6989 19.0229Z" fill="#FFBC44"/>
<path d="M22.3387 15.0643L21.4864 15.9166L18.6455 13.0757L19.4978 12.2234C20.5912 11.1299 22.4583 11.6303 22.8585 13.1239C23.0444 13.8172 22.8461 14.5569 22.3387 15.0643Z" fill="#FF808C"/>
<path d="M6.35449 5.00781H12.9832" stroke="#191919" stroke-linecap="round" stroke-linejoin="round"/>
<path d="M4.46045 7.84863H12.9832" stroke="#191919" stroke-linecap="round" stroke-linejoin="round"/>
<path d="M4.46045 10.6895H12.9832" stroke="#191919" stroke-linecap="round" stroke-linejoin="round"/>
<path d="M4.46045 13.5303H10.6158" stroke="#191919" stroke-linecap="round" stroke-linejoin="round"/>
<path d="M18.6457 13.0757L12.6987 19.0227L15.5396 21.8645L21.4866 15.9175L18.6457 13.0757Z" stroke="#191919" stroke-linecap="round" stroke-linejoin="round"/>
<path d="M12.6989 19.0229L15.5398 21.8638L11.5625 23.0001L12.6989 19.0229Z" stroke="#191919" stroke-linecap="round" stroke-linejoin="round"/>
<path d="M22.3387 15.0643L21.4864 15.9166L18.6455 13.0757L19.4978 12.2234C20.5912 11.1299 22.4583 11.6303 22.8585 13.1239C23.0444 13.8172 22.8461 14.5569 22.3387 15.0643Z" stroke="#191919" stroke-linecap="round" stroke-linejoin="round"/>
</g>
<defs>
<clipPath id="clip0_2_5668">
<rect width="24" height="24" fill="white"/>
</clipPath>
</defs>
</svg>
