<svg width="24" height="24" viewBox="0 0 24 24" fill="none" xmlns="http://www.w3.org/2000/svg">
<g clip-path="url(#clip0_2_5555)">
<path d="M19.0629 12.8609L18.3073 5.68704C18.2836 5.45126 18.1732 5.23268 17.9976 5.07363C17.8219 4.91459 17.5935 4.8264 17.3565 4.82617H11.4261C11.1891 4.8264 10.9607 4.91459 10.785 5.07363C10.6094 5.23268 10.499 5.45126 10.4753 5.68704L9.71964 12.8609C9.70623 12.9943 9.72102 13.1291 9.76305 13.2564C9.80507 13.3837 9.8734 13.5008 9.9636 13.6C10.0538 13.6992 10.1638 13.7784 10.2866 13.8323C10.4094 13.8863 10.5421 13.9138 10.6762 13.9131H18.116C18.2501 13.9138 18.3828 13.8863 18.5056 13.8323C18.6283 13.7784 18.7384 13.6992 18.8286 13.6C18.9187 13.5008 18.9871 13.3837 19.0291 13.2564C19.0711 13.1291 19.0859 12.9943 19.0725 12.8609H19.0629Z" fill="#C2F3FF"/>
<path d="M14.3913 10.4119C12.8391 10.4144 11.3348 9.87517 10.1376 8.88721L9.71964 12.8606C9.70623 12.9941 9.72102 13.1288 9.76305 13.2561C9.80507 13.3834 9.8734 13.5005 9.9636 13.5997C10.0538 13.6989 10.1638 13.7781 10.2866 13.832C10.4094 13.886 10.5421 13.9135 10.6762 13.9128H18.116C18.2501 13.9135 18.3828 13.886 18.5056 13.832C18.6283 13.7781 18.7384 13.6989 18.8286 13.5997C18.9187 13.5005 18.9871 13.3834 19.0291 13.2561C19.0711 13.1288 19.0859 12.9941 19.0725 12.8606L18.6545 8.89104C17.4543 9.87964 15.9462 10.4177 14.3913 10.4119Z" fill="#66E1FF"/>
<path d="M1 22.9998V13.4346" stroke="#191919" stroke-linecap="round" stroke-linejoin="round"/>
<path d="M1 15.3477H7.69565C8.45671 15.3477 9.18659 15.65 9.72474 16.1882C10.2629 16.7263 10.5652 17.4562 10.5652 18.2172H16.3043C17.0654 18.2172 17.7953 18.5196 18.3334 19.0577C18.8716 19.5959 19.1739 20.3258 19.1739 21.0868H1V15.3477Z" fill="#FFDDA1" stroke="#191919" stroke-linecap="round" stroke-linejoin="round"/>
<path d="M10.5649 18.2173H7.69531" stroke="#191919" stroke-linecap="round" stroke-linejoin="round"/>
<path d="M22.0433 8.65186H16.3042C16.0505 8.65186 15.8072 8.75263 15.6278 8.93202C15.4484 9.1114 15.3477 9.35468 15.3477 9.60837V14.391C15.3477 14.6447 15.4484 14.888 15.6278 15.0674C15.8072 15.2468 16.0505 15.3475 16.3042 15.3475H22.0433C22.297 15.3475 22.5403 15.2468 22.7197 15.0674C22.8991 14.888 22.9998 14.6447 22.9998 14.391V9.60837C22.9998 9.48276 22.9751 9.35838 22.927 9.24232C22.8789 9.12627 22.8085 9.02084 22.7197 8.93202C22.6309 8.8432 22.5254 8.77273 22.4094 8.72466C22.2933 8.67659 22.1689 8.65186 22.0433 8.65186Z" fill="#FF808C"/>
<path d="M22.0433 8.65186H16.3042C16.0505 8.65186 15.8072 8.75263 15.6278 8.93202C15.4484 9.1114 15.3477 9.35468 15.3477 9.60837V11.9997C15.3477 11.746 15.4484 11.5027 15.6278 11.3233C15.8072 11.144 16.0505 11.0432 16.3042 11.0432H22.0433C22.297 11.0432 22.5403 11.144 22.7197 11.3233C22.8991 11.5027 22.9998 11.746 22.9998 11.9997V9.60837C22.9998 9.35468 22.8991 9.1114 22.7197 8.93202C22.5403 8.75263 22.297 8.65186 22.0433 8.65186Z" fill="#FFBFC5"/>
<path d="M22.0433 8.65186H16.3042C16.0505 8.65186 15.8072 8.75263 15.6278 8.93202C15.4484 9.1114 15.3477 9.35468 15.3477 9.60837V14.391C15.3477 14.6447 15.4484 14.888 15.6278 15.0674C15.8072 15.2468 16.0505 15.3475 16.3042 15.3475H22.0433C22.297 15.3475 22.5403 15.2468 22.7197 15.0674C22.8991 14.888 22.9998 14.6447 22.9998 14.391V9.60837C22.9998 9.48276 22.9751 9.35838 22.927 9.24232C22.8789 9.12627 22.8085 9.02084 22.7197 8.93202C22.6309 8.8432 22.5254 8.77273 22.4094 8.72466C22.2933 8.67659 22.1689 8.65186 22.0433 8.65186Z" stroke="#191919" stroke-linecap="round" stroke-linejoin="round"/>
<path d="M19.1738 8.65186V15.3475" stroke="#191919" stroke-linecap="round" stroke-linejoin="round"/>
<path d="M15.3477 12.4785H22.9998" stroke="#191919" stroke-linecap="round" stroke-linejoin="round"/>
<path d="M18.2169 4.82617H11.4256C11.1894 4.82628 10.9615 4.9138 10.786 5.07186C10.6105 5.22992 10.4996 5.44734 10.4748 5.68226L9.71916 12.8561C9.70503 12.9899 9.71928 13.1252 9.76098 13.2531C9.80269 13.381 9.8709 13.4987 9.96117 13.5984C10.0514 13.6982 10.1617 13.7778 10.2849 13.832C10.408 13.8862 10.5411 13.9138 10.6757 13.9131H15.3473" stroke="#191919" stroke-linecap="round" stroke-linejoin="round"/>
<path d="M16.3041 4.82609V2.91304C16.3041 2.40567 16.1026 1.91908 15.7438 1.56032C15.385 1.20155 14.8984 1 14.3911 1C14.1398 1 13.8911 1.04948 13.659 1.14562C13.4269 1.24176 13.216 1.38267 13.0383 1.56032C12.8607 1.73796 12.7198 1.94885 12.6236 2.18095C12.5275 2.41305 12.478 2.66182 12.478 2.91304V4.82609" stroke="#191919" stroke-linecap="round" stroke-linejoin="round"/>
<path d="M19.1733 8.6523L17.2603 6.73926" stroke="#191919" stroke-linecap="round" stroke-linejoin="round"/>
<path d="M21.0869 6.73926L19.1738 8.6523" stroke="#191919" stroke-linecap="round" stroke-linejoin="round"/>
</g>
<defs>
<clipPath id="clip0_2_5555">
<rect width="24" height="24" fill="white"/>
</clipPath>
</defs>
</svg>
