<svg width="24" height="24" viewBox="0 0 24 24" fill="none" xmlns="http://www.w3.org/2000/svg">
<g clip-path="url(#clip0_2_5479)">
<path d="M21.1235 2.88798C21.1235 2.88798 21.1331 3.43471 21.1331 4.32674C21.1715 8.5567 21.018 20.6327 18.246 20.6327C14.8889 20.6327 17.7664 16.796 15.3685 16.796H8.19385C9.25853 11.4726 9.15302 2.88798 9.15302 2.88798C9.15302 2.88798 9.1818 1.44922 10.141 1.44922H22.1019C21.1427 1.44922 21.1235 2.88798 21.1235 2.88798Z" fill="white"/>
<path d="M22.1016 1.44922H20.2197C20.1622 7.23208 16.6353 14.988 11.2773 16.796H15.3682C17.7662 16.796 14.8886 20.6327 18.2457 20.6327C21.0178 20.6327 21.1712 8.5567 21.1329 4.32674C21.1329 3.43471 21.1233 2.88798 21.1233 2.88798C21.1233 2.88798 21.1425 1.44922 22.1016 1.44922Z" fill="#E3E3E3"/>
<path d="M21.1235 2.88798C21.1235 2.88798 21.1331 3.43471 21.1331 4.32674C21.1715 8.5567 21.018 20.6327 18.246 20.6327C14.8889 20.6327 17.7664 16.796 15.3685 16.796H8.19385C9.25853 11.4726 9.15302 2.88798 9.15302 2.88798C9.15302 2.88798 9.1818 1.44922 10.141 1.44922H22.1019C21.1427 1.44922 21.1235 2.88798 21.1235 2.88798Z" stroke="#191919" stroke-linecap="round" stroke-linejoin="round"/>
<path d="M12.0317 5.28564H13.9501" stroke="#191919" stroke-linecap="round" stroke-linejoin="round"/>
<path d="M12.2725 11.041H17.7877" stroke="#191919" stroke-linecap="round" stroke-linejoin="round"/>
<path d="M12.2725 8.16309H17.7877" stroke="#191919" stroke-linecap="round" stroke-linejoin="round"/>
<path d="M11.5527 13.9185H17.3078" stroke="#191919" stroke-linecap="round" stroke-linejoin="round"/>
<path d="M22.9939 3.25246C23.009 3.38703 22.9955 3.52327 22.9541 3.65222C22.9128 3.78117 22.8447 3.89991 22.7541 4.00062C22.6663 4.10294 22.5574 4.18504 22.4349 4.24133C22.3124 4.29763 22.1792 4.32676 22.0443 4.32674H21.1331C21.1331 3.43471 21.1235 2.88798 21.1235 2.88798C21.1235 2.88798 21.1427 1.44922 22.1019 1.44922C22.6678 1.44922 22.898 2.43717 22.9939 3.25246Z" fill="#B2B2B2" stroke="#191919" stroke-linecap="round" stroke-linejoin="round"/>
<path d="M15.3684 16.7959C13.9009 16.7959 14.4093 18.9636 14.2462 20.6326C14.1503 21.6877 13.7858 22.5509 12.4909 22.5509H1C4.35711 22.5509 1.47959 16.7959 3.87752 16.7959H15.3684Z" fill="white" stroke="#191919" stroke-linecap="round" stroke-linejoin="round"/>
<path d="M18.2459 20.6326H14.2461C14.4092 18.9636 13.9008 16.7959 15.3683 16.7959C17.7663 16.7959 14.8887 20.6326 18.2459 20.6326Z" fill="#B2B2B2" stroke="#191919" stroke-linecap="round" stroke-linejoin="round"/>
</g>
<defs>
<clipPath id="clip0_2_5479">
<rect width="24" height="24" fill="white"/>
</clipPath>
</defs>
</svg>
