<svg width="24" height="24" viewBox="0 0 24 24" fill="none" xmlns="http://www.w3.org/2000/svg">
<path d="M21.087 4.34766H2.91304C2.40613 4.34917 1.92043 4.55121 1.56199 4.90964C1.20355 5.26809 1.00151 5.75379 1 6.2607V17.7389C1.00151 18.2458 1.20355 18.7315 1.56199 19.09C1.92043 19.4484 2.40613 19.6505 2.91304 19.652H21.087C21.5943 19.652 22.0809 19.4504 22.4397 19.0917C22.7985 18.7329 23 18.2463 23 17.7389V6.2607C23 5.75333 22.7985 5.26674 22.4397 4.90798C22.0809 4.54921 21.5943 4.34766 21.087 4.34766Z" fill="#FFEF5E"/>
<path d="M2.91304 4.34766C2.40613 4.34917 1.92043 4.55121 1.56199 4.90964C1.20355 5.26809 1.00151 5.75379 1 6.2607V17.7389C1.0018 18.1862 1.15985 18.6188 1.44683 18.9618C1.73381 19.3049 2.13166 19.5368 2.57157 19.6176L17.8443 4.34766H2.91304Z" fill="#FFF9BF"/>
<path d="M23 6.2607V8.17375H1V6.2607C1.00151 5.75379 1.20355 5.26809 1.56199 4.90964C1.92043 4.55121 2.40613 4.34917 2.91304 4.34766H21.087C21.5943 4.34766 22.0809 4.54921 22.4397 4.90798C22.7985 5.26674 23 5.75333 23 6.2607Z" stroke="#191919" stroke-linecap="round" stroke-linejoin="round"/>
<path d="M23 8.17383V17.739C23 18.2464 22.7985 18.733 22.4397 19.0918C22.0809 19.4505 21.5943 19.6521 21.087 19.6521H2.91304C2.40613 19.6506 1.92043 19.4485 1.56199 19.0901C1.20355 18.7316 1.00151 18.2459 1 17.739V8.17383H23Z" stroke="#191919" stroke-linecap="round" stroke-linejoin="round"/>
<path d="M20.1376 12H17.2681" stroke="#191919" stroke-linecap="round" stroke-linejoin="round"/>
<path d="M11.5296 12H3.87744" stroke="#191919" stroke-linecap="round" stroke-linejoin="round"/>
<path d="M6.74701 14.8696H3.87744" stroke="#191919" stroke-linecap="round" stroke-linejoin="round"/>
</svg>
