<svg width="16" height="16" viewBox="0 0 16 16" fill="none" xmlns="http://www.w3.org/2000/svg">
<path d="M12.9534 7.46659C12.8745 7.45543 12.8021 7.41633 12.7495 7.3564C12.6969 7.29646 12.6676 7.21966 12.6668 7.13992V6.41992C12.6668 6.15471 12.5614 5.90035 12.3739 5.71281C12.1863 5.52528 11.932 5.41992 11.6668 5.41992H4.33344C4.06822 5.41992 3.81387 5.52528 3.62633 5.71281C3.4388 5.90035 3.33344 6.15471 3.33344 6.41992V7.13992C3.33263 7.21966 3.30326 7.29646 3.25066 7.3564C3.19807 7.41633 3.12573 7.45543 3.04677 7.46659C1.24011 7.75992 -0.013228 9.39326 0.000105367 11.4666C0.0124192 12.5364 0.447856 13.5577 1.21119 14.3073C1.97452 15.0569 3.00362 15.4737 4.07344 15.4666H11.9268C12.9966 15.4737 14.0257 15.0569 14.789 14.3073C15.5524 13.5577 15.9878 12.5364 16.0001 11.4666C16.0001 9.39326 14.7601 7.75992 12.9534 7.46659Z" fill="black"/>
<path d="M2.00008 5.75324C2.2211 5.75324 2.43306 5.66544 2.58934 5.50916C2.74562 5.35288 2.83341 5.14092 2.83341 4.91991V4.58657C2.84317 4.53531 2.87196 4.48963 2.91401 4.45871C2.95605 4.4278 3.00824 4.41394 3.06008 4.41991H12.9401C12.9919 4.41394 13.0441 4.4278 13.0862 4.45871C13.1282 4.48963 13.157 4.53531 13.1667 4.58657V4.91991C13.1667 5.14092 13.2545 5.35288 13.4108 5.50916C13.5671 5.66544 13.7791 5.75324 14.0001 5.75324C14.2211 5.75324 14.4331 5.66544 14.5893 5.50916C14.7456 5.35288 14.8334 5.14092 14.8334 4.91991V4.58657C14.8299 4.34174 14.7782 4.1 14.681 3.87522C14.5839 3.65044 14.4434 3.44705 14.2675 3.27672C14.0916 3.10638 13.8838 2.97246 13.656 2.88263C13.4282 2.7928 13.1849 2.74883 12.9401 2.75324H10.6667C10.6378 2.75332 10.6093 2.74584 10.5841 2.73156C10.5589 2.71727 10.5378 2.69665 10.523 2.67175C10.5082 2.64685 10.5002 2.61852 10.4997 2.58955C10.4991 2.56059 10.5062 2.53199 10.5201 2.50657C10.6133 2.32483 10.6634 2.12411 10.6667 1.91991C10.6843 1.61293 10.5953 1.30931 10.4147 1.06046C10.2341 0.811607 9.97307 0.63282 9.67576 0.554376C9.37846 0.475932 9.06318 0.502653 8.78332 0.630012C8.50346 0.757372 8.27622 0.977543 8.14008 1.25324C8.12592 1.27777 8.10549 1.29811 8.0809 1.31216C8.0563 1.32622 8.02841 1.33349 8.00008 1.33324C7.97099 1.33275 7.94245 1.32522 7.9169 1.31129C7.89136 1.29735 7.86958 1.27744 7.85341 1.25324C7.73373 1.04578 7.56037 0.874389 7.35156 0.757079C7.14275 0.639768 6.90619 0.58087 6.66675 0.586573C6.31313 0.586573 5.97399 0.727049 5.72394 0.977097C5.47389 1.22715 5.33342 1.56628 5.33342 1.91991C5.33466 2.12359 5.38255 2.32428 5.47341 2.50657C5.48708 2.5315 5.49414 2.5595 5.49393 2.58792C5.49372 2.61634 5.48624 2.64424 5.47221 2.66895C5.45818 2.69367 5.43807 2.71439 5.41377 2.72914C5.38948 2.7439 5.36182 2.75219 5.33342 2.75324H3.06008C2.81526 2.74883 2.57198 2.7928 2.34419 2.88263C2.1164 2.97246 1.90859 3.10638 1.73269 3.27672C1.55678 3.44705 1.41623 3.65044 1.31912 3.87522C1.222 4.1 1.17022 4.34174 1.16675 4.58657V4.91991C1.16675 5.14092 1.25455 5.35288 1.41083 5.50916C1.56711 5.66544 1.77907 5.75324 2.00008 5.75324Z" fill="black"/>
</svg>
