<svg width="24" height="24" viewBox="0 0 24 24" fill="none" xmlns="http://www.w3.org/2000/svg">
<path d="M5.59202 8.8997C5.69973 8.773 5.82767 8.67248 5.96852 8.60389C6.10936 8.5353 6.26035 8.5 6.41283 8.5C6.56531 8.5 6.7163 8.5353 6.85714 8.60389C6.99799 8.67248 7.12593 8.773 7.23364 8.8997L11.751 14.2028L16.2684 8.8997C16.4861 8.64415 16.7813 8.50058 17.0892 8.50058C17.3971 8.50058 17.6923 8.64415 17.91 8.8997C18.1277 9.15526 18.25 9.50186 18.25 9.86327C18.25 10.2247 18.1277 10.5713 17.91 10.8268L12.566 17.1003C12.4583 17.227 12.3304 17.3275 12.1895 17.3961C12.0487 17.4647 11.8977 17.5 11.7452 17.5C11.5927 17.5 11.4417 17.4647 11.3009 17.3961C11.16 17.3275 11.0321 17.227 10.9244 17.1003L5.58038 10.8268C5.13795 10.3075 5.13795 9.43274 5.59202 8.8997Z" fill="black"/>
</svg>
