<svg width="24" height="24" viewBox="0 0 24 24" fill="none" xmlns="http://www.w3.org/2000/svg">
<path d="M2.09608 8.82056C2.01832 8.87763 1.96093 8.95814 1.93234 9.05026C1.90376 9.14238 1.9055 9.24124 1.9373 9.3323C1.97183 9.42412 2.03375 9.50311 2.11468 9.55855C2.19562 9.61398 2.29164 9.64319 2.38973 9.64221H21.6158C21.714 9.64346 21.8101 9.61448 21.8912 9.55921C21.9723 9.50394 22.0345 9.42505 22.0692 9.33326C22.1017 9.24236 22.1039 9.14337 22.0755 9.05111C22.047 8.95885 21.9894 8.8783 21.9114 8.82152L12.3242 1.59882C12.2388 1.5359 12.1355 1.50195 12.0296 1.50195C11.9236 1.50195 11.8203 1.5359 11.7349 1.59882L2.09608 8.82056Z" fill="#E3E3E3"/>
<path d="M12.0001 6.03995C14.9539 5.99581 17.8811 6.60224 20.5743 7.81621L12.3214 1.59882C12.2361 1.5359 12.1328 1.50195 12.0268 1.50195C11.9208 1.50195 11.8175 1.5359 11.7322 1.59882L3.44971 7.80665C6.13647 6.59999 9.05508 5.99694 12.0001 6.03995Z" fill="white"/>
<path d="M23 20.6616H1V22.4981H23V20.6616Z" fill="#808080"/>
<path d="M1.95605 18.8252H6.73866" stroke="#191919" stroke-linecap="round" stroke-linejoin="round"/>
<path d="M1 22.498H23" stroke="#191919" stroke-linecap="round" stroke-linejoin="round"/>
<path d="M1 20.6616H23" stroke="#191919" stroke-linecap="round" stroke-linejoin="round"/>
<path d="M1.95605 11.479H6.73866" stroke="#191919" stroke-linecap="round" stroke-linejoin="round"/>
<path d="M9.60889 18.8252H14.3915" stroke="#191919" stroke-linecap="round" stroke-linejoin="round"/>
<path d="M9.60889 11.479H14.3915" stroke="#191919" stroke-linecap="round" stroke-linejoin="round"/>
<path d="M5.78216 11.479V18.825H2.9126V11.479H5.78216Z" fill="#E3E3E3" stroke="#191919" stroke-linecap="round" stroke-linejoin="round"/>
<path d="M13.4345 11.479V18.825H10.5649V11.479H13.4345Z" fill="#E3E3E3" stroke="#191919" stroke-linecap="round" stroke-linejoin="round"/>
<path d="M17.2603 18.8252H22.0429" stroke="#191919" stroke-linecap="round" stroke-linejoin="round"/>
<path d="M17.2603 11.479H22.0429" stroke="#191919" stroke-linecap="round" stroke-linejoin="round"/>
<path d="M21.0869 11.479V18.825H18.2173V11.479H21.0869Z" fill="#E3E3E3" stroke="#191919" stroke-linecap="round" stroke-linejoin="round"/>
<path d="M2.09608 8.82056C2.01832 8.87763 1.96093 8.95814 1.93234 9.05026C1.90376 9.14238 1.9055 9.24124 1.9373 9.3323C1.97183 9.42412 2.03375 9.50311 2.11468 9.55855C2.19562 9.61398 2.29164 9.64319 2.38973 9.64221H21.6158C21.714 9.64346 21.8101 9.61448 21.8912 9.55921C21.9723 9.50394 22.0345 9.42505 22.0692 9.33326C22.1017 9.24236 22.1039 9.14337 22.0755 9.05111C22.047 8.95885 21.9894 8.8783 21.9114 8.82152L12.3242 1.59882C12.2388 1.5359 12.1355 1.50195 12.0296 1.50195C11.9236 1.50195 11.8203 1.5359 11.7349 1.59882L2.09608 8.82056Z" stroke="#191919" stroke-linecap="round" stroke-linejoin="round"/>
</svg>
