<svg width="24" height="24" viewBox="0 0 24 24" fill="none" xmlns="http://www.w3.org/2000/svg">
<path d="M1 18.2175V9.6088H17.2609L23 5.78271V14.3914L17.2609 18.2175H1Z" fill="#78EB7B"/>
<path d="M1 9.6088L6.73913 5.78271H23L17.2609 9.6088H1Z" fill="#C9F7CA" stroke="#191919" stroke-linecap="round" stroke-linejoin="round"/>
<path d="M22.9998 8.65234L17.2606 12.4784H12.478" stroke="#191919" stroke-linecap="round" stroke-linejoin="round"/>
<path d="M22.9998 11.5215L17.2606 15.3476H12.478" stroke="#191919" stroke-linecap="round" stroke-linejoin="round"/>
<path d="M22.9998 14.3911L17.2606 18.2172H12.478" stroke="#191919" stroke-linecap="round" stroke-linejoin="round"/>
<path d="M12.4779 18.2175H5.78223V9.6088C5.78223 9.4603 5.8168 9.31385 5.88321 9.18104C5.94962 9.04822 6.04604 8.93268 6.16484 8.84359L10.5648 5.78271H17.2605L12.8605 8.84359C12.7417 8.93268 12.6453 9.04822 12.5789 9.18104C12.5124 9.31385 12.4779 9.4603 12.4779 9.6088V18.2175Z" fill="#E3E3E3"/>
<path d="M12.8605 8.84359L17.2605 5.78271H10.5648L6.16484 8.84359C6.04604 8.93268 5.94962 9.04822 5.88321 9.18104C5.8168 9.31385 5.78223 9.4603 5.78223 9.6088H12.4779C12.4779 9.4603 12.5124 9.31385 12.5789 9.18104C12.6453 9.04822 12.7417 8.93268 12.8605 8.84359Z" fill="white"/>
<path d="M12.4779 18.2175H5.78223V9.6088C5.78223 9.4603 5.8168 9.31386 5.88321 9.18104C5.94962 9.04822 6.04604 8.93269 6.16484 8.84359L10.5648 5.78271H17.2605L12.8605 8.84359C12.7417 8.93269 12.6453 9.04822 12.5789 9.18104C12.5124 9.31386 12.4779 9.4603 12.4779 9.6088V18.2175Z" stroke="#191919" stroke-linecap="round" stroke-linejoin="round"/>
<path d="M5.78261 12.478H1" stroke="#191919" stroke-linecap="round" stroke-linejoin="round"/>
<path d="M5.78261 15.3477H1" stroke="#191919" stroke-linecap="round" stroke-linejoin="round"/>
<path d="M5.78261 18.2173H1" stroke="#191919" stroke-linecap="round" stroke-linejoin="round"/>
</svg>
