<svg width="24" height="24" viewBox="0 0 24 24" fill="none" xmlns="http://www.w3.org/2000/svg">
<path d="M20.8027 9.80988C20.8042 8.26419 20.3986 6.74536 19.6267 5.40619C18.8549 4.06702 17.7439 2.95474 16.4057 2.18126C15.0675 1.40777 13.5491 1.00035 12.0034 1C10.4578 0.999646 8.93924 1.40636 7.60065 2.17924C6.26206 2.95211 5.15062 4.06388 4.37814 5.4027C3.60566 6.74151 3.19939 8.26016 3.2002 9.80584C3.20101 11.3515 3.60887 12.8698 4.38275 14.2078C5.15663 15.5458 6.26924 16.6564 7.60863 17.4278C9.25935 18.3803 9.70431 19.4316 11.576 22.7506C11.6186 22.8261 11.6805 22.8889 11.7553 22.9326C11.8301 22.9763 11.9153 22.9994 12.0019 22.9994C12.0886 22.9994 12.1737 22.9763 12.2485 22.9326C12.3234 22.8889 12.3852 22.8261 12.4278 22.7506C14.3191 19.3954 14.7474 18.3784 16.3942 17.4278C17.7342 16.6581 18.8474 15.5484 19.6215 14.2109C20.3955 12.8733 20.8029 11.3552 20.8027 9.80988Z" fill="#E3E3E3"/>
<path d="M12.0006 1.00879C10.0626 1.00726 8.17845 1.64581 6.64075 2.82523C5.10306 4.00465 3.99793 5.65891 3.49707 7.53099C2.99621 9.40307 3.12767 11.3882 3.87101 13.1779C4.61435 14.9676 5.92796 16.4617 7.60776 17.428C9.25848 18.3805 9.70343 19.4318 11.5752 22.7508C11.6176 22.8264 11.6794 22.8892 11.7541 22.9331C11.8289 22.9769 11.9139 23.0001 12.0006 23.0002V1.00879Z" fill="white"/>
<path d="M20.8027 9.80988C20.8042 8.26419 20.3986 6.74536 19.6267 5.40619C18.8549 4.06702 17.7439 2.95474 16.4057 2.18126C15.0675 1.40777 13.5491 1.00035 12.0034 1C10.4578 0.999646 8.93924 1.40636 7.60065 2.17924C6.26206 2.95211 5.15062 4.06388 4.37814 5.4027C3.60566 6.74151 3.19939 8.26016 3.2002 9.80584C3.20101 11.3515 3.60887 12.8698 4.38275 14.2078C5.15663 15.5458 6.26924 16.6564 7.60863 17.4278C9.25935 18.3803 9.70431 19.4316 11.576 22.7506C11.6186 22.8261 11.6805 22.8889 11.7553 22.9326C11.8301 22.9763 11.9153 22.9994 12.0019 22.9994C12.0886 22.9994 12.1737 22.9763 12.2485 22.9326C12.3234 22.8889 12.3852 22.8261 12.4278 22.7506C14.3191 19.3954 14.7474 18.3784 16.3942 17.4278C17.7342 16.6581 18.8474 15.5484 19.6215 14.2109C20.3955 12.8733 20.8029 11.3552 20.8027 9.80988Z" stroke="#191919" stroke-linecap="round" stroke-linejoin="round"/>
<path d="M17.2206 6.60415C17.4797 6.66425 17.7153 6.79952 17.8978 6.99299C18.0803 7.18647 18.2017 7.42953 18.2466 7.69169C18.2915 7.95385 18.258 8.22344 18.1503 8.46664C18.0426 8.70983 17.8654 8.9158 17.6411 9.05872L9.96251 13.8271C9.88374 13.8759 9.79235 13.9006 9.69969 13.898C9.60703 13.8954 9.51718 13.8656 9.44128 13.8124L6.62293 11.836C6.59189 11.8115 6.56688 11.7802 6.5498 11.7445C6.53273 11.7089 6.52405 11.6697 6.52443 11.6302C6.5248 11.5906 6.53423 11.5517 6.55198 11.5164C6.56973 11.481 6.59534 11.4502 6.62684 11.4263L7.80914 10.3848C7.84362 10.3566 7.88479 10.3379 7.92866 10.3304C7.97252 10.3228 8.01759 10.3267 8.05949 10.3418L9.54005 11.2219L11.4176 9.91146L7.8639 7.71115C7.82668 7.67984 7.79701 7.64053 7.77712 7.59614C7.75723 7.55175 7.74763 7.50344 7.74904 7.45482C7.75045 7.40619 7.76284 7.35852 7.78527 7.31536C7.8077 7.2722 7.83959 7.23467 7.87857 7.20557L8.74892 6.56112C8.79211 6.529 8.84268 6.50823 8.89599 6.50071C8.94929 6.49319 9.00363 6.49917 9.05403 6.5181L13.9573 8.34289L16.2261 6.79485C16.3697 6.69614 16.5322 6.62823 16.7034 6.59541C16.8745 6.5626 17.0506 6.56557 17.2206 6.60415Z" fill="#FFEF5E" stroke="#191919" stroke-linecap="round" stroke-linejoin="round"/>
</svg>
