<svg width="24" height="24" viewBox="0 0 24 24" fill="none" xmlns="http://www.w3.org/2000/svg">
<path d="M18.6667 3H5.33333C4.97971 3 4.64057 3.15804 4.39052 3.43934C4.14048 3.72064 4 4.10218 4 4.5V19.5C4 19.8978 4.14048 20.2794 4.39052 20.5607C4.64057 20.842 4.97971 21 5.33333 21H14.3908C14.566 21.0003 14.7394 20.9616 14.9012 20.8862C15.0629 20.8107 15.2098 20.7 15.3333 20.5603L19.6092 15.75C19.7333 15.611 19.8317 15.4458 19.8988 15.2638C19.9659 15.0818 20.0003 14.8867 20 14.6897V4.5C20 4.10218 19.8595 3.72064 19.6095 3.43934C19.3594 3.15804 19.0203 3 18.6667 3ZM9.33333 8.25H14.6667C14.8435 8.25 15.013 8.32902 15.1381 8.46967C15.2631 8.61032 15.3333 8.80109 15.3333 9C15.3333 9.19891 15.2631 9.38968 15.1381 9.53033C15.013 9.67098 14.8435 9.75 14.6667 9.75H9.33333C9.15652 9.75 8.98695 9.67098 8.86193 9.53033C8.7369 9.38968 8.66667 9.19891 8.66667 9C8.66667 8.80109 8.7369 8.61032 8.86193 8.46967C8.98695 8.32902 9.15652 8.25 9.33333 8.25ZM12 15.75H9.33333C9.15652 15.75 8.98695 15.671 8.86193 15.5303C8.7369 15.3897 8.66667 15.1989 8.66667 15C8.66667 14.8011 8.7369 14.6103 8.86193 14.4697C8.98695 14.329 9.15652 14.25 9.33333 14.25H12C12.1768 14.25 12.3464 14.329 12.4714 14.4697C12.5964 14.6103 12.6667 14.8011 12.6667 15C12.6667 15.1989 12.5964 15.3897 12.4714 15.5303C12.3464 15.671 12.1768 15.75 12 15.75ZM9.33333 12.75C9.15652 12.75 8.98695 12.671 8.86193 12.5303C8.7369 12.3897 8.66667 12.1989 8.66667 12C8.66667 11.8011 8.7369 11.6103 8.86193 11.4697C8.98695 11.329 9.15652 11.25 9.33333 11.25H14.6667C14.8435 11.25 15.013 11.329 15.1381 11.4697C15.2631 11.6103 15.3333 11.8011 15.3333 12C15.3333 12.1989 15.2631 12.3897 15.1381 12.5303C15.013 12.671 14.8435 12.75 14.6667 12.75H9.33333ZM14.6667 19.1897V15H18.3917L14.6667 19.1897Z" fill="black"/>
</svg>
