<svg width="24" height="24" viewBox="0 0 24 24" fill="none" xmlns="http://www.w3.org/2000/svg">
<path d="M18.4814 15.9352C16.6578 18.2822 14.5782 20.4185 12.2812 22.3047C12.2001 22.3707 12.0996 22.4083 11.9951 22.4118C11.8906 22.4152 11.7878 22.3843 11.7025 22.3238C9.18404 20.5303 6.94148 18.378 5.04611 15.9352C4.13711 14.766 3.39091 13.4789 2.82793 12.1091C2.27069 10.7971 1.9747 9.38894 1.95654 7.96357C1.95654 0.0435753 10.8675 -0.530338 12 6.83488C13.1325 -0.530338 22.0435 0.0435753 22.0435 7.39827C21.9983 9.0371 21.5917 10.6457 20.8526 12.1091C20.2475 13.4904 19.4491 14.7787 18.4814 15.9352Z" fill="#FFBFC5"/>
<path d="M12 15.4775C8.92131 15.4944 5.89737 14.6638 3.25928 13.0767C3.76046 14.0852 4.35889 15.0425 5.04606 15.9348C6.94145 18.3775 9.18401 20.5298 11.7025 22.3234C11.7878 22.3839 11.8905 22.4148 11.9951 22.4113C12.0996 22.4079 12.2001 22.3703 12.2812 22.3042C14.5782 20.4181 16.6577 18.2817 18.4814 15.9348C19.1357 15.138 19.7174 14.2842 20.2194 13.3837C17.7024 14.7697 14.8733 15.4903 12 15.4775Z" fill="#FF808C"/>
<path d="M1 14.0229H6.5C6.57425 14.0229 6.64748 14.0056 6.71388 13.9724C6.78029 13.9392 6.83806 13.891 6.88261 13.8316L7.76835 12.6513C7.81419 12.59 7.87406 12.5407 7.94291 12.5074C8.01176 12.4741 8.0876 12.4578 8.16405 12.4599C8.24051 12.4619 8.31536 12.4823 8.38231 12.5193C8.44927 12.5562 8.50639 12.6087 8.54887 12.6723L9.62974 14.2984C9.67624 14.368 9.74021 14.4242 9.81525 14.4614C9.89029 14.4986 9.97377 14.5154 10.0573 14.5101C10.1409 14.5049 10.2217 14.4778 10.2915 14.4316C10.3613 14.3854 10.4178 14.3216 10.4552 14.2467L11.9283 11.3007C11.9713 11.2145 12.0394 11.1433 12.1237 11.0964C12.2079 11.0496 12.3043 11.0293 12.4002 11.0382C12.4962 11.0471 12.5872 11.0848 12.6614 11.1463C12.7356 11.2078 12.7894 11.2903 12.8159 11.3829L14.0537 15.715C14.08 15.8077 14.1338 15.8903 14.2079 15.9519C14.282 16.0135 14.373 16.0513 14.469 16.0603C14.565 16.0693 14.6614 16.0491 14.7457 16.0023C14.83 15.9555 14.8982 15.8844 14.9413 15.7982L15.6941 14.2927C15.7337 14.2131 15.7947 14.1462 15.8702 14.0994C15.9457 14.0526 16.0328 14.0278 16.1217 14.0277H23" stroke="#191919" stroke-linecap="round" stroke-linejoin="round"/>
<path d="M20.8526 12.1091C21.5917 10.6457 21.9983 9.0371 22.0435 7.39827C22.0435 0.0435753 13.1325 -0.530338 12 6.83488C10.8675 -0.530338 1.95654 0.0435753 1.95654 7.96357C1.9747 9.38894 2.27069 10.7971 2.82793 12.1091" stroke="#191919" stroke-linecap="round" stroke-linejoin="round"/>
<path d="M5.0459 15.9351C6.94127 18.3779 9.18383 20.5302 11.7023 22.3237C11.7876 22.3842 11.8904 22.4151 11.9949 22.4117C12.0994 22.4082 12.1999 22.3706 12.281 22.3046C14.578 20.4184 16.6576 18.2821 18.4812 15.9351" stroke="#191919" stroke-linecap="round" stroke-linejoin="round"/>
</svg>
