<svg width="24" height="24" viewBox="0 0 24 24" fill="none" xmlns="http://www.w3.org/2000/svg">
<g clip-path="url(#clip0_2_5204)">
<path d="M13.5129 5.30441V11.5218H1.07812V5.30441C1.07812 4.92389 1.2293 4.55894 1.49837 4.28987C1.76745 4.0208 2.13238 3.86963 2.51291 3.86963H12.0781C12.4586 3.86963 12.8236 4.0208 13.0927 4.28987C13.3618 4.55894 13.5129 4.92389 13.5129 5.30441Z" fill="#66E1FF"/>
<path d="M2.51291 3.86963C2.13238 3.86963 1.76745 4.0208 1.49837 4.28987C1.2293 4.55894 1.07812 4.92389 1.07812 5.30441V11.5218H2.32829L9.98048 3.86963H2.51291Z" fill="#C2F3FF"/>
<path d="M19.2555 7.69565C19.9176 7.69565 20.5649 7.49931 21.1155 7.13145C21.6661 6.76358 22.0952 6.24072 22.3485 5.62898C22.6019 5.01725 22.6682 4.34411 22.5391 3.6947C22.4099 3.04528 22.0911 2.44876 21.6228 1.98056C21.1546 1.51235 20.5581 1.19351 19.9087 1.06433C19.2593 0.935153 18.5862 1.00145 17.9744 1.25484C17.3627 1.50823 16.8398 1.93732 16.472 2.48788C16.1041 3.03842 15.9077 3.68569 15.9077 4.34783C15.9077 5.23573 16.2605 6.08726 16.8882 6.71509C17.5161 7.34293 18.3677 7.69565 19.2555 7.69565Z" fill="#E3E3E3"/>
<path d="M19.2555 3.13878C19.9539 3.14082 20.634 3.36173 21.2001 3.77043C21.7664 4.17914 22.1902 4.75507 22.4121 5.41722C22.534 5.07363 22.5986 4.71236 22.6034 4.34783C22.6034 3.45993 22.2507 2.60839 21.6228 1.98056C20.995 1.35272 20.1435 1 19.2555 1C18.3677 1 17.5161 1.35272 16.8882 1.98056C16.2605 2.60839 15.9077 3.45993 15.9077 4.34783C15.912 4.7124 15.9767 5.07376 16.099 5.41722C16.3206 4.75492 16.7444 4.17882 17.3106 3.77008C17.8769 3.36133 18.5572 3.14053 19.2555 3.13878Z" fill="white"/>
<path d="M13.5129 11.522V12.0003C13.5129 12.3808 13.3618 12.7458 13.0927 13.0148C12.8236 13.2839 12.4586 13.435 12.0781 13.435H2.51291C2.13238 13.435 1.76745 13.2839 1.49837 13.0148C1.2293 12.7458 1.07812 12.3808 1.07812 12.0003V11.522H13.5129Z" fill="white" stroke="#191919" stroke-linecap="round" stroke-linejoin="round"/>
<path d="M13.5129 5.30441V11.5218H1.07812V5.30441C1.07812 4.92389 1.2293 4.55894 1.49837 4.28987C1.76745 4.0208 2.13238 3.86963 2.51291 3.86963H12.0781C12.4586 3.86963 12.8236 4.0208 13.0927 4.28987C13.3618 4.55894 13.5129 4.92389 13.5129 5.30441Z" stroke="#191919" stroke-linecap="round" stroke-linejoin="round"/>
<path d="M8.73382 15.3477V13.4346H5.86426V15.3477H8.73382Z" fill="#E3E3E3" stroke="#191919" stroke-linecap="round" stroke-linejoin="round"/>
<path d="M1.42813 16.0403C1.39148 15.9672 1.3742 15.8858 1.37794 15.8041C1.38169 15.7224 1.40633 15.643 1.44951 15.5736C1.49269 15.504 1.55297 15.4468 1.62458 15.4073C1.6962 15.3677 1.77676 15.3473 1.85856 15.3477H22.308C22.3896 15.3477 22.4698 15.3686 22.5411 15.4084C22.6122 15.4481 22.6721 15.5054 22.7149 15.5747C22.7578 15.6442 22.7822 15.7234 22.7858 15.8049C22.7895 15.8863 22.7722 15.9674 22.7356 16.0403L21.6471 18.2173H2.51665L1.42813 16.0403Z" fill="#E3BFB3" stroke="#191919" stroke-linecap="round" stroke-linejoin="round"/>
<path d="M2.51653 18.2173L1.26636 22.3839C1.24487 22.4554 1.2404 22.5308 1.25329 22.6043C1.26618 22.6778 1.29608 22.7472 1.3406 22.8071C1.38513 22.867 1.44303 22.9156 1.50969 22.949C1.57636 22.9825 1.64993 22.9999 1.72453 22.9999H2.63896C2.74179 22.9999 2.8419 22.9668 2.92443 22.9055C3.00696 22.8442 3.06752 22.7578 3.09714 22.6594L4.42957 18.2173H2.51653Z" fill="#C77F67" stroke="#191919" stroke-linecap="round" stroke-linejoin="round"/>
<path d="M21.6469 18.2173L22.9019 22.3839C22.9234 22.4554 22.9279 22.5308 22.915 22.6043C22.9021 22.6778 22.8721 22.7472 22.8277 22.8071C22.7831 22.867 22.7252 22.9156 22.6585 22.949C22.5919 22.9825 22.5183 22.9999 22.4437 22.9999H21.5245C21.4217 22.9999 21.3216 22.9668 21.2391 22.9055C21.1565 22.8442 21.096 22.7578 21.0663 22.6594L19.7339 18.2173H21.6469Z" fill="#C77F67" stroke="#191919" stroke-linecap="round" stroke-linejoin="round"/>
<path d="M19.2555 7.69565C19.9176 7.69565 20.5649 7.49931 21.1155 7.13145C21.6661 6.76358 22.0952 6.24072 22.3485 5.62898C22.6019 5.01725 22.6682 4.34411 22.5391 3.6947C22.4099 3.04528 22.0911 2.44876 21.6228 1.98056C21.1546 1.51235 20.5581 1.19351 19.9087 1.06433C19.2593 0.935153 18.5862 1.00145 17.9744 1.25484C17.3627 1.50823 16.8398 1.93732 16.472 2.48788C16.1041 3.03842 15.9077 3.68569 15.9077 4.34783C15.9077 5.23573 16.2605 6.08726 16.8882 6.71509C17.5161 7.34293 18.3677 7.69565 19.2555 7.69565Z" stroke="#191919" stroke-linecap="round" stroke-linejoin="round"/>
<path d="M19.2559 2.43457V4.34762H20.8102" stroke="#191919" stroke-linecap="round" stroke-linejoin="round"/>
<path d="M17.821 11.522H20.6906C20.8174 11.522 20.9391 11.5724 21.0288 11.662C21.1185 11.7517 21.1689 11.8734 21.1689 12.0003V15.3481H17.3428V12.0003C17.3428 11.8734 17.3932 11.7517 17.4829 11.662C17.5725 11.5724 17.6942 11.522 17.821 11.522Z" fill="#FFEF5E" stroke="#191919" stroke-linecap="round" stroke-linejoin="round"/>
<path d="M19.7339 11.5219V9.60889" stroke="#191919" stroke-linecap="round" stroke-linejoin="round"/>
<path d="M17.8213 9.60889L18.7778 11.5219" stroke="#191919" stroke-linecap="round" stroke-linejoin="round"/>
</g>
<defs>
<clipPath id="clip0_2_5204">
<rect width="24" height="24" fill="white"/>
</clipPath>
</defs>
</svg>
