<svg width="24" height="24" viewBox="0 0 24 24" fill="none" xmlns="http://www.w3.org/2000/svg">
<path d="M13.8523 5.50928H7.59328C7.46559 5.50928 7.34312 5.56 7.25283 5.6503C7.16253 5.74059 7.11182 5.86304 7.11182 5.99074V8.39805H10.9635L13.8523 5.50928Z" fill="#FFEF5E"/>
<path d="M7.11182 8.39805V5.99074C7.11182 5.86304 7.16253 5.74059 7.25283 5.6503C7.34312 5.56 7.46559 5.50928 7.59328 5.50928H11.445" fill="#FFEF5E"/>
<path d="M7.11182 8.39805V5.99074C7.11182 5.86304 7.16253 5.74059 7.25283 5.6503C7.34312 5.56 7.46559 5.50928 7.59328 5.50928H11.445" stroke="#191919" stroke-linecap="round" stroke-linejoin="round"/>
<path d="M6.14851 8.39788L3.46098 2.4056C3.43474 2.34707 3.39707 2.29438 3.35019 2.25062C3.3033 2.20685 3.24815 2.17289 3.18796 2.15073C3.12777 2.12858 3.06377 2.11867 2.99969 2.1216C2.93562 2.12452 2.87278 2.14022 2.81486 2.16776L1.27418 2.89862C1.16034 2.95292 1.07236 3.04972 1.02915 3.1682C0.985932 3.28669 0.990933 3.41739 1.04307 3.53222L3.25781 8.39788H6.14851Z" fill="#78EB7B" stroke="#191919" stroke-linecap="round" stroke-linejoin="round"/>
<path d="M5.66753 21.879C6.46524 21.879 7.11192 21.2324 7.11192 20.4346C7.11192 19.6369 6.46524 18.9902 5.66753 18.9902C4.86982 18.9902 4.22314 19.6369 4.22314 20.4346C4.22314 21.2324 4.86982 21.879 5.66753 21.879Z" fill="#808080" stroke="#191919" stroke-linecap="round" stroke-linejoin="round"/>
<path d="M16.2588 21.879C17.0565 21.879 17.7032 21.2324 17.7032 20.4346C17.7032 19.6369 17.0565 18.9902 16.2588 18.9902C15.4612 18.9902 14.8145 19.6369 14.8145 20.4346C14.8145 21.2324 15.4612 21.879 16.2588 21.879Z" fill="#808080" stroke="#191919" stroke-linecap="round" stroke-linejoin="round"/>
<path d="M23.0001 2.62061H20.4965C20.3879 2.62058 20.2825 2.65728 20.1973 2.72476C20.1121 2.79225 20.0523 2.88653 20.0276 2.9923L16.2597 18.9903H5.66748" stroke="#191919" stroke-linecap="round" stroke-linejoin="round"/>
<path d="M16.7117 17.0642H4.56924C4.46823 17.0642 4.36981 17.0324 4.28789 16.9733C4.20599 16.9141 4.14473 16.8308 4.11281 16.7349L1.54469 9.03155C1.52057 8.95914 1.51401 8.88202 1.52557 8.80658C1.53711 8.73112 1.56643 8.6595 1.61111 8.59761C1.65578 8.53572 1.71453 8.48534 1.78251 8.45063C1.8505 8.41592 1.92575 8.39786 2.00208 8.39795H18.7425L16.7117 17.0642Z" fill="#E3E3E3"/>
<path d="M9.08906 14.6581C6.57487 14.6581 3.44054 10.8555 1.72943 8.48291C1.68335 8.51403 1.64323 8.55317 1.61099 8.59846C1.5664 8.66027 1.53713 8.73179 1.52558 8.80712C1.51403 8.88244 1.52053 8.95944 1.54454 9.03177L4.11267 16.7351C4.14458 16.831 4.20583 16.9143 4.28775 16.9734C4.36965 17.0326 4.46808 17.0644 4.56909 17.0644H16.7116L17.2759 14.6571L9.08906 14.6581Z" fill="#B2B2B2"/>
<path d="M16.7117 17.0642H4.56924C4.46823 17.0642 4.36981 17.0324 4.28789 16.9733C4.20599 16.9141 4.14473 16.8308 4.11281 16.7349L1.54469 9.03155C1.52057 8.95914 1.51401 8.88202 1.52557 8.80658C1.53711 8.73112 1.56643 8.6595 1.61111 8.59761C1.65578 8.53572 1.71453 8.48534 1.78251 8.45063C1.8505 8.41592 1.92575 8.39786 2.00208 8.39795H18.7425L16.7117 17.0642Z" stroke="#191919" stroke-linecap="round" stroke-linejoin="round"/>
<path d="M10.9634 8.39791L14.4781 4.88324C14.5681 4.79502 14.689 4.74561 14.8151 4.74561C14.9411 4.74561 15.0621 4.79502 15.1521 4.88324L18.7429 8.39791H10.9634Z" fill="#FF808C" stroke="#191919" stroke-linecap="round" stroke-linejoin="round"/>
</svg>
