<svg width="24" height="24" viewBox="0 0 24 24" fill="none" xmlns="http://www.w3.org/2000/svg">
<path d="M17.562 21.5602C17.3999 21.5598 17.2403 21.52 17.097 21.4442L12 18.7642L6.90301 21.4442C6.73797 21.5307 6.55206 21.5693 6.36624 21.5558C6.18042 21.5422 6.00208 21.477 5.85132 21.3676C5.70057 21.2581 5.5834 21.1087 5.51302 20.9361C5.44264 20.7636 5.42186 20.5749 5.45301 20.3912L6.42601 14.7152L2.30201 10.6952C2.1686 10.5649 2.07426 10.4 2.02965 10.2189C1.98504 10.0379 1.99194 9.848 2.04956 9.67067C2.10717 9.49334 2.21322 9.33565 2.35573 9.21541C2.49823 9.09517 2.67151 9.01716 2.85601 8.9902L8.55501 8.1622L11.104 2.9982C11.1958 2.84204 11.3269 2.71258 11.4841 2.62262C11.6413 2.53267 11.8194 2.48535 12.0005 2.48535C12.1817 2.48535 12.3597 2.53267 12.5169 2.62262C12.6742 2.71258 12.8052 2.84204 12.897 2.9982L15.445 8.1622L21.144 8.9902C21.3285 9.01716 21.5018 9.09517 21.6443 9.21541C21.7868 9.33565 21.8928 9.49334 21.9505 9.67067C22.0081 9.848 22.015 10.0379 21.9704 10.2189C21.9258 10.4 21.8314 10.5649 21.698 10.6952L17.574 14.7152L18.548 20.3912C18.5726 20.5347 18.5656 20.6818 18.5274 20.8223C18.4893 20.9628 18.4209 21.0932 18.3271 21.2046C18.2333 21.3159 18.1163 21.4054 17.9844 21.4668C17.8524 21.5282 17.7076 21.5601 17.562 21.5602Z" fill="black"/>
</svg>
