<svg width="24" height="24" viewBox="0 0 24 24" fill="none" xmlns="http://www.w3.org/2000/svg">
<path d="M6.73926 3.38256C6.73926 3.31975 6.75163 3.25756 6.77566 3.19954C6.7997 3.14151 6.83493 3.08879 6.87934 3.04438C6.92375 2.99997 6.97647 2.96474 7.0345 2.9407C7.09252 2.91667 7.15471 2.9043 7.21752 2.9043H20.6088C20.6716 2.9043 20.7338 2.91667 20.7918 2.9407C20.8499 2.96474 20.9026 2.99997 20.947 3.04438C20.9914 3.08879 21.0266 3.14151 21.0507 3.19954C21.0747 3.25756 21.0871 3.31975 21.0871 3.38256V10.0782C21.0871 10.2051 21.0367 10.3267 20.947 10.4164C20.8573 10.5061 20.7357 10.5565 20.6088 10.5565H7.21752C7.09068 10.5565 6.96903 10.5061 6.87934 10.4164C6.78965 10.3267 6.73926 10.2051 6.73926 10.0782V3.38256Z" fill="#78EB7B"/>
<path d="M7.21752 2.9043C7.09068 2.9043 6.96903 2.95469 6.87934 3.04438C6.78965 3.13407 6.73926 3.25572 6.73926 3.38256V10.0782C6.73926 10.2051 6.78965 10.3267 6.87934 10.4164C6.96903 10.5061 7.09068 10.5565 7.21752 10.5565H10.0192L17.6713 2.9043H7.21752Z" fill="#C9F7CA"/>
<path d="M6.73926 3.38256C6.73926 3.31975 6.75163 3.25756 6.77566 3.19954C6.7997 3.14151 6.83493 3.08879 6.87934 3.04438C6.92375 2.99997 6.97647 2.96474 7.0345 2.9407C7.09252 2.91667 7.15471 2.9043 7.21752 2.9043H20.6088C20.6716 2.9043 20.7338 2.91667 20.7918 2.9407C20.8499 2.96474 20.9026 2.99997 20.947 3.04438C20.9914 3.08879 21.0266 3.14151 21.0507 3.19954C21.0747 3.25756 21.0871 3.31975 21.0871 3.38256V10.0782C21.0871 10.2051 21.0367 10.3267 20.947 10.4164C20.8573 10.5061 20.7357 10.5565 20.6088 10.5565H7.21752C7.09068 10.5565 6.96903 10.5061 6.87934 10.4164C6.78965 10.3267 6.73926 10.2051 6.73926 10.0782V3.38256Z" stroke="#191919" stroke-linecap="round" stroke-linejoin="round"/>
<path d="M16.8271 2.9043L21.0913 6.25212" stroke="#191919" stroke-linecap="round" stroke-linejoin="round"/>
<path d="M17.4297 10.5568L21.0922 7.20898" stroke="#191919" stroke-linecap="round" stroke-linejoin="round"/>
<path d="M6.73926 7.20898L10.4008 10.5568" stroke="#191919" stroke-linecap="round" stroke-linejoin="round"/>
<path d="M6.73926 6.25212L10.9833 2.9043" stroke="#191919" stroke-linecap="round" stroke-linejoin="round"/>
<path d="M13.9133 8.16498C14.1017 8.16498 14.2883 8.12787 14.4624 8.05576C14.6364 7.98366 14.7946 7.87797 14.9278 7.74474C15.0611 7.61151 15.1668 7.45334 15.2389 7.27926C15.311 7.10519 15.3481 6.91862 15.3481 6.7302C15.3481 6.54178 15.311 6.35521 15.2389 6.18113C15.1668 6.00705 15.0611 5.84888 14.9278 5.71565C14.7946 5.58242 14.6364 5.47674 14.4624 5.40463C14.2883 5.33253 14.1017 5.29541 13.9133 5.29541C13.5328 5.29541 13.1678 5.44658 12.8988 5.71565C12.6297 5.98473 12.4785 6.34967 12.4785 6.7302C12.4785 7.11072 12.6297 7.47567 12.8988 7.74474C13.1678 8.01382 13.5328 8.16498 13.9133 8.16498Z" fill="white" stroke="#191919" stroke-linecap="round" stroke-linejoin="round"/>
<path d="M20.1304 15.3564L15.9017 16.7606H15.8911C15.9787 16.6007 16.019 16.4193 16.0075 16.2374C15.996 16.0556 15.9331 15.8807 15.826 15.7332C15.719 15.5857 15.5723 15.4716 15.403 15.4042C15.2337 15.3368 15.0487 15.3189 14.8696 15.3526H12C10.8663 14.1826 9.32374 13.497 7.69565 13.4395H4.82609L1 15.3526V21.0917L4.82609 18.7004C15.0877 22.1219 11.3027 22.1563 23 16.3091C22.6768 15.8755 22.2283 15.5516 21.7151 15.3812C21.2019 15.2109 20.6487 15.2022 20.1304 15.3564Z" fill="#FFDDA1"/>
<path d="M15.9017 16.7607L20.1304 15.3565C20.6491 15.2027 21.2025 15.212 21.7158 15.3831C22.229 15.5542 22.6773 15.8788 23 16.313C11.3027 22.1603 15.0877 22.1258 4.82609 18.7043L1 21.0957" stroke="#191919" stroke-linecap="round" stroke-linejoin="round"/>
<path d="M9.6087 17.2656H14.8696C15.0095 17.2907 15.1532 17.2849 15.2906 17.2484C15.4281 17.2119 15.5558 17.1457 15.6649 17.0545C15.7739 16.9633 15.8616 16.8493 15.9218 16.7205C15.982 16.5917 16.0132 16.4512 16.0132 16.3091C16.0132 16.1669 15.982 16.0265 15.9218 15.8977C15.8616 15.7689 15.7739 15.6548 15.6649 15.5636C15.5558 15.4724 15.4281 15.4062 15.2906 15.3698C15.1532 15.3333 15.0095 15.3274 14.8696 15.3526H12C10.8663 14.1826 9.32374 13.497 7.69565 13.4395H4.82609L1 15.3526" stroke="#191919" stroke-linecap="round" stroke-linejoin="round"/>
</svg>
