<svg width="24" height="24" viewBox="0 0 24 24" fill="none" xmlns="http://www.w3.org/2000/svg">
<path d="M18.408 17.1003C18.3003 17.227 18.1723 17.3275 18.0315 17.3961C17.8906 17.4647 17.7397 17.5 17.5872 17.5C17.4347 17.5 17.2837 17.4647 17.1429 17.3961C17.002 17.3275 16.8741 17.227 16.7664 17.1003L12.249 11.7972L7.73161 17.1003C7.51392 17.3559 7.21867 17.4994 6.9108 17.4994C6.60294 17.4994 6.30768 17.3559 6.08999 17.1003C5.8723 16.8447 5.75 16.4981 5.75 16.1367C5.75 15.7753 5.8723 15.4287 6.08999 15.1732L11.434 8.8997C11.5417 8.773 11.6696 8.67247 11.8105 8.60389C11.9513 8.5353 12.1023 8.5 12.2548 8.5C12.4073 8.5 12.5583 8.5353 12.6991 8.60389C12.84 8.67247 12.9679 8.773 13.0756 8.8997L18.4196 15.1732C18.862 15.6925 18.862 16.5673 18.408 17.1003Z" fill="black"/>
</svg>
