<svg width="24" height="24" viewBox="0 0 24 24" fill="none" xmlns="http://www.w3.org/2000/svg">
<path d="M12.0002 21.565C17.2829 21.565 21.5654 17.2824 21.5654 11.9998C21.5654 6.71705 17.2829 2.43457 12.0002 2.43457C6.71753 2.43457 2.43506 6.71705 2.43506 11.9998C2.43506 17.2824 6.71753 21.565 12.0002 21.565Z" fill="#E3E3E3"/>
<path d="M20.1305 8.39309V15.0887L14.3818 16.1791C14.3897 16.1349 14.3931 16.0901 14.3914 16.0452H14.8697C15.1362 16.0462 15.3977 15.9723 15.6242 15.832C15.8508 15.6916 16.0336 15.4903 16.1514 15.2513C16.2698 15.0131 16.32 14.7466 16.2963 14.4816C16.2727 14.2166 16.1762 13.9632 16.0175 13.7496L12.9471 9.8183L10.9766 10.4687C10.705 10.5547 10.4108 10.5355 10.1527 10.4147C9.89459 10.2941 9.69118 10.0808 9.58284 9.81723C9.4745 9.5537 9.46923 9.25903 9.56791 8.9917C9.66659 8.72436 9.86218 8.50387 10.1158 8.37396L10.6131 8.12526L13.4253 6.72875C13.7063 6.58693 14.0136 6.50436 14.3279 6.4862C14.6422 6.46814 14.9568 6.5149 15.2523 6.62353L20.1305 8.39309Z" fill="#FFDDA1"/>
<path d="M16.1528 15.2525C16.0349 15.4915 15.8522 15.6928 15.6256 15.8332C15.399 15.9734 15.1376 16.0474 14.8711 16.0464H14.3928C14.3944 16.0913 14.3911 16.1361 14.3832 16.1803C14.3619 16.432 14.282 16.6752 14.1499 16.8904C14.0178 17.1057 13.8371 17.2871 13.6224 17.4199C13.4077 17.5528 13.1647 17.6337 12.9132 17.6559C12.6617 17.6783 12.4084 17.6413 12.1737 17.5482L12.0015 17.4812V18.0838C11.9996 18.3507 11.9164 18.6106 11.7631 18.829C11.6098 19.0473 11.3935 19.214 11.1432 19.3064C10.8928 19.3988 10.6202 19.4128 10.3618 19.3465C10.1033 19.2801 9.8711 19.1367 9.69629 18.9351L6.26044 15.0889H3.86914V9.34985L8.27869 7.58029C8.60371 7.45252 8.95567 7.40919 9.30197 7.45438C9.64818 7.49957 9.97739 7.63172 10.2587 7.83855L10.6126 8.1255L10.1152 8.3742C9.86154 8.50411 9.66604 8.7246 9.56736 8.99193C9.46858 9.25927 9.47395 9.55394 9.58229 9.81757C9.69063 10.0811 9.89404 10.2943 10.1521 10.415C10.4103 10.5357 10.7044 10.5549 10.9761 10.4689L12.9465 9.81854L16.0169 13.7498C16.1761 13.9634 16.2729 14.2168 16.297 14.482C16.321 14.7472 16.2711 15.014 16.1528 15.2525Z" fill="#FFDDA1"/>
<path d="M15.6029 13.2157L16.0189 13.7494C16.1776 13.9631 16.2741 14.2165 16.2977 14.4815C16.3213 14.7465 16.2712 15.0129 16.1529 15.2512C16.035 15.4902 15.8522 15.6915 15.6257 15.8318C15.3991 15.9722 15.1377 16.0461 14.8711 16.0451H14.3929C14.3944 16.09 14.3912 16.1348 14.3833 16.179L20.132 15.0886V12.2793C18.6529 12.7247 17.1373 13.038 15.6029 13.2157Z" fill="#FFDDA1"/>
<path d="M15.6028 13.2157C14.4702 13.3479 13.3311 13.414 12.1909 13.4137C9.36893 13.429 6.56174 13.007 3.86914 12.1626V15.0886H6.26044L9.69434 18.9338C9.86925 19.1354 10.1015 19.2789 10.3601 19.3452C10.6187 19.4115 10.8914 19.3974 11.1416 19.305C11.3921 19.2123 11.6084 19.0457 11.7616 18.8271C11.9148 18.6086 11.9978 18.3485 11.9996 18.0815V17.4799L12.1717 17.5468C12.4065 17.64 12.6597 17.6769 12.9113 17.6547C13.1629 17.6323 13.4057 17.5515 13.6205 17.4186C13.8352 17.2857 14.0159 17.1044 14.148 16.8891C14.2801 16.6739 14.3599 16.4307 14.3813 16.179C14.3892 16.1348 14.3925 16.09 14.3909 16.0451H14.8691C15.1357 16.0461 15.3971 15.9722 15.6237 15.8318C15.8502 15.6915 16.033 15.4902 16.1508 15.2512C16.2691 15.0129 16.3194 14.7465 16.2958 14.4815C16.2721 14.2165 16.1756 13.9631 16.0169 13.7494L15.6028 13.2157Z" fill="#FFDDA1"/>
<path d="M14.3926 9.34961L12.9482 9.8183" stroke="#191919" stroke-linecap="round" stroke-linejoin="round"/>
<path d="M20.1305 8.39309V15.0887L14.3818 16.1791C14.3897 16.1349 14.3931 16.0901 14.3914 16.0452H14.8697C15.1362 16.0462 15.3977 15.9723 15.6242 15.832C15.8508 15.6916 16.0336 15.4903 16.1514 15.2513C16.2698 15.0131 16.32 14.7466 16.2963 14.4816C16.2727 14.2166 16.1762 13.9632 16.0175 13.7496L12.9471 9.8183L10.9766 10.4687C10.705 10.5547 10.4108 10.5355 10.1527 10.4147C9.89459 10.2941 9.69118 10.0808 9.58284 9.81723C9.4745 9.5537 9.46923 9.25903 9.56791 8.9917C9.66659 8.72436 9.86218 8.50387 10.1158 8.37396L10.6131 8.12526L13.4253 6.72875C13.7063 6.58693 14.0136 6.50436 14.3279 6.4862C14.6422 6.46814 14.9568 6.5149 15.2523 6.62353L20.1305 8.39309Z" stroke="#191919" stroke-linecap="round" stroke-linejoin="round"/>
<path d="M16.1528 15.2525C16.0349 15.4915 15.8522 15.6928 15.6256 15.8332C15.399 15.9734 15.1376 16.0474 14.8711 16.0464H14.3928C14.3944 16.0913 14.3911 16.1361 14.3832 16.1803C14.3619 16.432 14.282 16.6752 14.1499 16.8904C14.0178 17.1057 13.8371 17.2871 13.6224 17.4199C13.4077 17.5528 13.1647 17.6337 12.9132 17.6559C12.6617 17.6783 12.4084 17.6413 12.1737 17.5482L12.0015 17.4812V18.0838C11.9996 18.3507 11.9164 18.6106 11.7631 18.829C11.6098 19.0473 11.3935 19.214 11.1432 19.3064C10.8928 19.3988 10.6202 19.4128 10.3618 19.3465C10.1033 19.2801 9.8711 19.1367 9.69629 18.9351L6.26044 15.0889H3.86914V9.34985L8.27869 7.58029C8.60371 7.45252 8.95567 7.40919 9.30197 7.45438C9.64818 7.49957 9.97739 7.63172 10.2587 7.83855L10.6126 8.1255L10.1152 8.3742C9.86154 8.50411 9.66604 8.7246 9.56736 8.99193C9.46858 9.25927 9.47395 9.55394 9.58229 9.81757C9.69063 10.0811 9.89404 10.2943 10.1521 10.415C10.4103 10.5357 10.7044 10.5549 10.9761 10.4689L12.9465 9.81854L16.0169 13.7498C16.1761 13.9634 16.2729 14.2168 16.297 14.482C16.321 14.7472 16.2711 15.014 16.1528 15.2525Z" stroke="#191919" stroke-linecap="round" stroke-linejoin="round"/>
<path d="M1 7.43652H2.91304C3.16671 7.43652 3.41004 7.53735 3.58943 7.71674C3.76883 7.89604 3.86956 8.13937 3.86956 8.39304V15.0887C3.86956 15.3423 3.76883 15.5857 3.58943 15.7651C3.41004 15.9444 3.16671 16.0452 2.91304 16.0452H1" fill="#66E1FF"/>
<path d="M1 7.43652H2.91304C3.16671 7.43652 3.41004 7.53735 3.58943 7.71674C3.76883 7.89604 3.86956 8.13937 3.86956 8.39304V15.0887C3.86956 15.3423 3.76883 15.5857 3.58943 15.7651C3.41004 15.9444 3.16671 16.0452 2.91304 16.0452H1" stroke="#191919" stroke-linecap="round" stroke-linejoin="round"/>
<path d="M22.9999 16.0452H21.0869C20.8332 16.0452 20.5899 15.9444 20.4105 15.7651C20.2311 15.5858 20.1304 15.3423 20.1304 15.0887V8.39304C20.1304 8.13937 20.2312 7.89604 20.4105 7.71674C20.5899 7.53735 20.8332 7.43652 21.0869 7.43652H22.9999" fill="#66E1FF"/>
<path d="M22.9999 16.0452H21.0869C20.8332 16.0452 20.5899 15.9444 20.4105 15.7651C20.2311 15.5858 20.1304 15.3423 20.1304 15.0887V8.39304C20.1304 8.13937 20.2312 7.89604 20.4105 7.71674C20.5899 7.53735 20.8332 7.43652 21.0869 7.43652H22.9999" stroke="#191919" stroke-linecap="round" stroke-linejoin="round"/>
<path d="M12 17.4799L11.0435 16.5234" stroke="#191919" stroke-linecap="round" stroke-linejoin="round"/>
<path d="M12.9561 14.6104L14.3908 16.0451" stroke="#191919" stroke-linecap="round" stroke-linejoin="round"/>
</svg>
