<svg width="20" height="20" viewBox="0 0 20 20" fill="none" xmlns="http://www.w3.org/2000/svg">
<path d="M13.0282 2.6625L11.625 4.06563L15.9344 8.375L17.3375 6.97188C17.7625 6.55 18 5.975 18 5.375C18 4.775 17.7625 4.2 17.3375 3.77813L16.2219 2.6625C15.8 2.2375 15.225 2 14.625 2C14.025 2 13.45 2.2375 13.0282 2.6625ZM10.5657 5.125L3.84066 11.8469C3.50628 12.1813 3.26253 12.6 3.13441 13.0562L2.02816 17.05C1.95628 17.3094 2.02816 17.5906 2.22191 17.7812C2.41566 17.9719 2.69378 18.0469 2.95316 17.975L6.94691 16.8656C7.40316 16.7375 7.81878 16.4969 8.15628 16.1594L14.875 9.43437L10.5657 5.125Z" fill="black"/>
</svg>
