<svg width="24" height="24" viewBox="0 0 24 24" fill="none" xmlns="http://www.w3.org/2000/svg">
<path d="M20.1304 6.26172H3.86957C3.10851 6.26172 2.37862 6.56405 1.84048 7.1022C1.30233 7.64034 1 8.37023 1 9.13129V18.6965C1 19.4576 1.30233 20.1875 1.84048 20.7256C2.37862 21.2638 3.10851 21.5661 3.86957 21.5661H20.1304C20.8915 21.5661 21.6214 21.2638 22.1595 20.7256C22.6977 20.1875 23 19.4576 23 18.6965V9.13129C23 8.37023 22.6977 7.64034 22.1595 7.1022C21.6214 6.56405 20.8915 6.26172 20.1304 6.26172Z" fill="#FFBC44"/>
<path d="M20.1304 6.25977H3.86957C3.10928 6.26229 2.38086 6.56543 1.84326 7.10303C1.30566 7.64063 1.00252 8.36905 1 9.12933V11.9989C1.00252 11.2386 1.30566 10.5102 1.84326 9.97259C2.38086 9.43499 3.10928 9.13185 3.86957 9.12933H20.1304C20.8907 9.13185 21.6191 9.43499 22.1567 9.97259C22.6943 10.5102 22.9975 11.2386 23 11.9989V9.12933C22.9975 8.36905 22.6943 7.64063 22.1567 7.10303C21.6191 6.56543 20.8907 6.26229 20.1304 6.25977Z" fill="#FFDDA1"/>
<path d="M20.1304 6.26172H3.86957C3.10851 6.26172 2.37862 6.56405 1.84048 7.1022C1.30233 7.64034 1 8.37023 1 9.13129V18.6965C1 19.4576 1.30233 20.1875 1.84048 20.7256C2.37862 21.2638 3.10851 21.5661 3.86957 21.5661H20.1304C20.8915 21.5661 21.6214 21.2638 22.1595 20.7256C22.6977 20.1875 23 19.4576 23 18.6965V9.13129C23 8.37023 22.6977 7.64034 22.1595 7.1022C21.6214 6.56405 20.8915 6.26172 20.1304 6.26172Z" stroke="#191919" stroke-linecap="round" stroke-linejoin="round"/>
<path d="M8.65137 6.26016V4.34712C8.65263 3.84014 8.85459 3.35428 9.21308 2.99579C9.57157 2.6373 10.0574 2.43534 10.5644 2.43408H13.434C13.9409 2.43559 14.4266 2.63763 14.785 2.99607C15.1435 3.35451 15.3455 3.84022 15.347 4.34712V6.26016" stroke="#191919" stroke-linecap="round" stroke-linejoin="round"/>
<path d="M11.9995 11.0444V10.0879" stroke="#191919" stroke-linecap="round" stroke-linejoin="round"/>
<path d="M13.4344 11.0425H11.4898C11.1918 11.0427 10.9031 11.1466 10.6733 11.3364C10.4435 11.5261 10.2869 11.7899 10.2304 12.0825C10.1738 12.3752 10.2208 12.6783 10.3634 12.94C10.5059 13.2018 10.735 13.4058 11.0115 13.517L12.9858 14.3061C13.2629 14.417 13.4927 14.6209 13.6357 14.8829C13.7787 15.1448 13.826 15.4484 13.7694 15.7415C13.7127 16.0345 13.5558 16.2986 13.3255 16.4885C13.0952 16.6783 12.806 16.782 12.5075 16.7816H10.5648" stroke="#191919" stroke-linecap="round" stroke-linejoin="round"/>
<path d="M11.9995 17.7402V16.7837" stroke="#191919" stroke-linecap="round" stroke-linejoin="round"/>
</svg>
