<svg width="24" height="24" viewBox="0 0 24 24" fill="none" xmlns="http://www.w3.org/2000/svg">
<path d="M3.86914 7.21748C3.86914 6.83696 4.02031 6.47202 4.28937 6.20295C4.55844 5.93388 4.92339 5.78271 5.30391 5.78271H18.6951C19.0756 5.78271 19.4406 5.93388 19.7097 6.20295C19.9787 6.47202 20.1299 6.83696 20.1299 7.21748C20.1299 7.598 19.9787 7.96296 19.7097 8.23203C19.4406 8.5011 19.0756 8.65226 18.6951 8.65226H5.30391C4.92339 8.65226 4.55844 8.5011 4.28937 8.23203C4.02031 7.96296 3.86914 7.598 3.86914 7.21748Z" fill="#FFEF5E"/>
<path d="M13.9133 5.78263C14.1971 5.78263 14.4745 5.69848 14.7104 5.54082C14.9463 5.38317 15.1303 5.15909 15.2388 4.89693C15.3475 4.63476 15.3759 4.34627 15.3205 4.06795C15.2651 3.78963 15.1284 3.53398 14.9279 3.33332C14.7272 3.13267 14.4715 2.99602 14.1932 2.94066C13.9149 2.88529 13.6264 2.91371 13.3642 3.0223C13.1021 3.1309 12.878 3.3148 12.7203 3.55075C12.5627 3.78669 12.4785 4.06409 12.4785 4.34786C12.4785 4.72839 12.6296 5.09333 12.8987 5.36239C13.1678 5.63147 13.5328 5.78263 13.9133 5.78263Z" fill="#E3E3E3" stroke="#191919" stroke-linecap="round" stroke-linejoin="round"/>
<path d="M10.0881 5.78263C10.3719 5.78263 10.6493 5.69848 10.8852 5.54082C11.1211 5.38317 11.3051 5.15909 11.4136 4.89693C11.5223 4.63476 11.5507 4.34627 11.4953 4.06795C11.4399 3.78963 11.3032 3.53398 11.1027 3.33332C10.902 3.13267 10.6463 2.99602 10.368 2.94066C10.0897 2.88529 9.80119 2.91371 9.53902 3.0223C9.27686 3.1309 9.05278 3.3148 8.89513 3.55075C8.73746 3.78669 8.65332 4.06409 8.65332 4.34786C8.65332 4.72839 8.80449 5.09333 9.07356 5.36239C9.34262 5.63147 9.70757 5.78263 10.0881 5.78263Z" fill="#E3E3E3" stroke="#191919" stroke-linecap="round" stroke-linejoin="round"/>
<path d="M5.78256 8.65234V9.68538C5.78228 9.91249 5.70118 10.132 5.5538 10.3049C5.40642 10.4776 5.20236 10.5923 4.97814 10.6285C2.53999 11.0216 1 13.1986 1 15.8262C1 17.2214 1.55426 18.5595 2.54086 19.5461C3.52745 20.5327 4.86557 21.087 6.26082 21.087H17.739C19.1342 21.087 20.4723 20.5327 21.4589 19.5461C22.4455 18.5595 22.9998 17.2214 22.9998 15.8262C22.9998 13.1986 21.4646 11.0216 19.0226 10.6285C18.7982 10.5926 18.5939 10.4779 18.4463 10.3052C18.2988 10.1323 18.2175 9.91262 18.2172 9.68538V8.65234H5.78256Z" fill="#EABFFF"/>
<path d="M17.7391 16.9192H6.26092C5.21533 16.9195 4.19339 16.6081 3.32554 16.0249C2.45768 15.4417 1.7833 14.6132 1.38844 13.645C1.12745 14.3423 0.995852 15.0813 1.0001 15.8259C1.0001 17.2211 1.55436 18.5592 2.54096 19.5458C3.52755 20.5324 4.86567 21.0867 6.26092 21.0867H17.7391C19.1343 21.0867 20.4724 20.5324 21.4591 19.5458C22.4456 18.5592 22.9999 17.2211 22.9999 15.8259C23.0042 15.0807 22.8726 14.3411 22.6116 13.6431C22.217 14.6117 21.5427 15.4406 20.6749 16.0242C19.807 16.6076 18.7849 16.9193 17.7391 16.9192Z" fill="#D480FF"/>
<path d="M5.78256 8.65234V9.68538C5.78228 9.91249 5.70118 10.132 5.5538 10.3049C5.40642 10.4776 5.20236 10.5923 4.97814 10.6285C2.53999 11.0216 1 13.1986 1 15.8262C1 17.2214 1.55426 18.5595 2.54086 19.5461C3.52745 20.5327 4.86557 21.087 6.26082 21.087H17.739C19.1342 21.087 20.4723 20.5327 21.4589 19.5461C22.4455 18.5595 22.9998 17.2214 22.9998 15.8262C22.9998 13.1986 21.4646 11.0216 19.0226 10.6285C18.7982 10.5926 18.5939 10.4779 18.4463 10.3052C18.2988 10.1323 18.2175 9.91262 18.2172 9.68538V8.65234" stroke="#191919" stroke-linecap="round" stroke-linejoin="round"/>
<path d="M20.1299 7.21748C20.1299 7.598 19.9787 7.96296 19.7097 8.23203C19.4406 8.5011 19.0756 8.65226 18.6951 8.65226H5.30391C4.92339 8.65226 4.55844 8.5011 4.28937 8.23203C4.02031 7.96296 3.86914 7.598 3.86914 7.21748C3.86914 6.83696 4.02031 6.47202 4.28937 6.20295C4.55844 5.93388 4.92339 5.78271 5.30391 5.78271H18.6951C19.0756 5.78271 19.4406 5.93388 19.7097 6.20295C19.9787 6.47202 20.1299 6.83696 20.1299 7.21748Z" stroke="#191919" stroke-linecap="round" stroke-linejoin="round"/>
</svg>
