<svg width="24" height="24" viewBox="0 0 24 24" fill="none" xmlns="http://www.w3.org/2000/svg">
<g clip-path="url(#clip0_2_5096)">
<path d="M20.1234 14.0085C20.1376 13.9389 20.1361 13.8669 20.119 13.7979C20.1019 13.7289 20.0697 13.6645 20.0245 13.6096C19.9795 13.5546 19.9228 13.5104 19.8584 13.4801C19.7941 13.4498 19.7238 13.4343 19.6528 13.4346H1.4793C1.4083 13.4344 1.33815 13.4501 1.27394 13.4804C1.20974 13.5107 1.1531 13.555 1.10813 13.6099C1.06316 13.6649 1.03099 13.7292 1.01396 13.7982C0.996931 13.867 0.995462 13.939 1.00966 14.0085C1.29764 15.5 1.96965 16.8905 2.95933 18.0429C3.94901 19.1953 5.22212 20.0696 6.653 20.5796C6.71472 20.6016 6.77126 20.6361 6.81912 20.6807C6.86698 20.7255 6.90515 20.7795 6.93125 20.8396C6.95734 20.8998 6.97082 20.9645 6.97084 21.03C6.97085 21.0956 6.95741 21.1604 6.93134 21.2205C6.7528 21.6309 6.66034 22.0737 6.65969 22.5213C6.65969 22.6482 6.71008 22.7698 6.79977 22.8595C6.88946 22.9492 7.01111 22.9996 7.13794 22.9996H13.996C14.1229 22.9996 14.2445 22.9492 14.3342 22.8595C14.4239 22.7698 14.4743 22.6482 14.4743 22.5213C14.4741 22.0721 14.3817 21.6277 14.2026 21.2157C14.1762 21.1555 14.1626 21.0905 14.1625 21.0248C14.1623 20.9591 14.1757 20.894 14.2018 20.8337C14.2279 20.7734 14.2661 20.7191 14.3143 20.6742C14.3623 20.6294 14.419 20.5948 14.481 20.5729C15.9109 20.0636 17.1834 19.1902 18.1729 18.0391C19.1623 16.8879 19.8346 15.4987 20.1234 14.0085Z" fill="#FF808C"/>
<path d="M20.1234 14.0085C20.1376 13.9389 20.1361 13.8669 20.119 13.7979C20.1019 13.7289 20.0697 13.6645 20.0245 13.6096C19.9795 13.5546 19.9228 13.5104 19.8584 13.4801C19.7941 13.4498 19.7238 13.4343 19.6528 13.4346H1.4793C1.4083 13.4344 1.33815 13.4501 1.27394 13.4804C1.20974 13.5107 1.1531 13.555 1.10813 13.6099C1.06316 13.6649 1.03099 13.7292 1.01396 13.7982C0.996931 13.867 0.995462 13.939 1.00966 14.0085C1.29764 15.5 1.96965 16.8905 2.95933 18.0429C3.94901 19.1953 5.22212 20.0696 6.653 20.5796C6.71472 20.6016 6.77126 20.6361 6.81912 20.6807C6.86698 20.7255 6.90515 20.7795 6.93125 20.8396C6.95734 20.8998 6.97082 20.9645 6.97084 21.03C6.97085 21.0956 6.95741 21.1604 6.93134 21.2205C6.7528 21.6309 6.66034 22.0737 6.65969 22.5213C6.65969 22.6482 6.71008 22.7698 6.79977 22.8595C6.88946 22.9492 7.01111 22.9996 7.13794 22.9996H13.996C14.1229 22.9996 14.2445 22.9492 14.3342 22.8595C14.4239 22.7698 14.4743 22.6482 14.4743 22.5213C14.4741 22.0721 14.3817 21.6277 14.2026 21.2157C14.1762 21.1555 14.1626 21.0905 14.1625 21.0248C14.1623 20.9591 14.1757 20.894 14.2018 20.8337C14.2279 20.7734 14.2661 20.7191 14.3143 20.6742C14.3623 20.6294 14.419 20.5948 14.481 20.5729C15.9109 20.0636 17.1834 19.1902 18.1729 18.0391C19.1623 16.8879 19.8346 15.4987 20.1234 14.0085Z" fill="#FFBFC5"/>
<path d="M20.0248 13.6087C19.9797 13.5539 19.9228 13.5098 19.8584 13.4797C19.7941 13.4495 19.7238 13.4341 19.6528 13.4346H19.5026C18.4648 16.591 14.8521 18.9306 10.5421 18.9306C6.23214 18.9306 2.61944 16.591 1.58164 13.4346H1.4793C1.4083 13.4344 1.33815 13.4501 1.27394 13.4804C1.20974 13.5107 1.1531 13.555 1.10813 13.6099C1.06316 13.6649 1.03099 13.7292 1.01396 13.7982C0.996931 13.867 0.995462 13.939 1.00966 14.0085C1.29728 15.5002 1.96916 16.8909 2.95889 18.0433C3.94861 19.1958 5.22193 20.07 6.65299 20.5796C6.71472 20.6016 6.77126 20.6361 6.81912 20.6807C6.86698 20.7255 6.90515 20.7795 6.93125 20.8397C6.95734 20.8998 6.97082 20.9645 6.97084 21.0301C6.97085 21.0956 6.95741 21.1604 6.93134 21.2205C6.7528 21.6309 6.66034 22.0737 6.65969 22.5213C6.65969 22.6482 6.71008 22.7698 6.79977 22.8595C6.88946 22.9492 7.01111 22.9996 7.13794 22.9996H13.996C14.1229 22.9996 14.2445 22.9492 14.3342 22.8595C14.4239 22.7698 14.4743 22.6482 14.4743 22.5213C14.4741 22.0722 14.3817 21.6277 14.2026 21.2157C14.1762 21.1555 14.1626 21.0905 14.1625 21.0248C14.1623 20.9591 14.1757 20.894 14.2018 20.8337C14.2279 20.7734 14.2661 20.7191 14.3143 20.6742C14.3623 20.6294 14.419 20.5948 14.481 20.5729C15.9111 20.0637 17.1837 19.1904 18.1734 18.0393C19.163 16.8881 19.8354 15.4988 20.1243 14.0085C20.1386 13.9387 20.137 13.8666 20.1198 13.7973C20.1026 13.7282 20.0702 13.6637 20.0248 13.6087Z" fill="#FF808C"/>
<path d="M20.1234 14.0085C20.1376 13.9389 20.1361 13.8669 20.119 13.7979C20.1019 13.7289 20.0697 13.6645 20.0245 13.6096C19.9795 13.5546 19.9228 13.5104 19.8584 13.4801C19.7941 13.4498 19.7238 13.4343 19.6528 13.4346H1.4793C1.4083 13.4344 1.33815 13.4501 1.27394 13.4804C1.20974 13.5107 1.1531 13.555 1.10813 13.6099C1.06316 13.6649 1.03099 13.7292 1.01396 13.7982C0.996931 13.867 0.995462 13.939 1.00966 14.0085C1.29764 15.5 1.96965 16.8905 2.95933 18.0429C3.94901 19.1953 5.22212 20.0696 6.653 20.5796C6.71472 20.6016 6.77126 20.6361 6.81912 20.6807C6.86698 20.7255 6.90515 20.7795 6.93125 20.8396C6.95734 20.8998 6.97082 20.9645 6.97084 21.03C6.97085 21.0956 6.95741 21.1604 6.93134 21.2205C6.7528 21.6309 6.66034 22.0737 6.65969 22.5213C6.65969 22.6482 6.71008 22.7698 6.79977 22.8595C6.88946 22.9492 7.01111 22.9996 7.13794 22.9996H13.996C14.1229 22.9996 14.2445 22.9492 14.3342 22.8595C14.4239 22.7698 14.4743 22.6482 14.4743 22.5213C14.4741 22.0721 14.3817 21.6277 14.2026 21.2157C14.1762 21.1555 14.1626 21.0905 14.1625 21.0248C14.1623 20.9591 14.1757 20.894 14.2018 20.8337C14.2279 20.7734 14.2661 20.7191 14.3143 20.6742C14.3623 20.6294 14.419 20.5948 14.481 20.5729C15.9109 20.0636 17.1834 19.1902 18.1729 18.0391C19.1623 16.8879 19.8346 15.4987 20.1234 14.0085Z" stroke="#191919" stroke-linecap="round" stroke-linejoin="round"/>
<path d="M22.9149 5.04406C22.9667 5.1586 22.9955 5.28224 22.9996 5.4079C23.0036 5.53357 22.9827 5.65879 22.9383 5.77641C22.894 5.89403 22.8267 6.00175 22.7406 6.09339C22.6545 6.18502 22.5512 6.25878 22.4367 6.31046L16.9942 8.78205C16.9085 8.82116 16.8159 8.84297 16.7218 8.84625C16.6276 8.84953 16.5337 8.83421 16.4454 8.80116C16.3573 8.76811 16.2764 8.71798 16.2076 8.65364C16.1388 8.58931 16.0833 8.51203 16.0444 8.42624L14.2643 4.5046C14.2252 4.41889 14.2034 4.3263 14.2002 4.23215C14.1968 4.13799 14.2122 4.04411 14.2452 3.95589C14.2783 3.86766 14.3284 3.78683 14.3927 3.718C14.4571 3.64917 14.5344 3.59371 14.6202 3.55479L20.0665 1.08512C20.1809 1.03327 20.3046 1.00451 20.4303 1.00049C20.556 0.996471 20.6812 1.01727 20.7988 1.06169C20.9164 1.1061 21.0241 1.17328 21.1157 1.25936C21.2074 1.34544 21.2812 1.44875 21.3329 1.56337L22.9149 5.04406Z" fill="#FFEF5E" stroke="#191919" stroke-linecap="round" stroke-linejoin="round"/>
<path d="M10.2593 7.09601L11.4664 6.31934" stroke="#191919" stroke-linecap="round" stroke-linejoin="round"/>
<path d="M12.1724 10.9222L12.9012 10.1455" stroke="#191919" stroke-linecap="round" stroke-linejoin="round"/>
<path d="M10.0322 9.66694L11.0528 8.78027" stroke="#191919" stroke-linecap="round" stroke-linejoin="round"/>
</g>
<defs>
<clipPath id="clip0_2_5096">
<rect width="24" height="24" fill="white"/>
</clipPath>
</defs>
</svg>
