<svg width="24" height="24" viewBox="0 0 24 24" fill="none" xmlns="http://www.w3.org/2000/svg">
<path fill-rule="evenodd" clip-rule="evenodd" d="M22 17.0099V12.9999C22 12.8022 21.9413 12.6089 21.8314 12.4445C21.7216 12.2801 21.5654 12.1519 21.3827 12.0762C21.2 12.0006 20.999 11.9808 20.805 12.0193C20.6111 12.0579 20.4329 12.1531 20.293 12.2929L19 13.5859L13.707 8.29292C13.5195 8.10545 13.2652 8.00013 13 8.00013C12.7349 8.00013 12.4806 8.10545 12.293 8.29292L9.00004 11.5859L3.70704 6.29292C3.51844 6.11076 3.26584 6.00997 3.00364 6.01224C2.74144 6.01452 2.49063 6.11969 2.30522 6.3051C2.11981 6.49051 2.01465 6.74132 2.01237 7.00352C2.01009 7.26571 2.11088 7.51832 2.29304 7.70692L8.29304 13.7069C8.48057 13.8944 8.73488 13.9997 9.00004 13.9997C9.26521 13.9997 9.51951 13.8944 9.70704 13.7069L13 10.4139L17.586 14.9999L16.293 16.2929C16.1532 16.4328 16.058 16.6109 16.0195 16.8049C15.9809 16.9988 16.0007 17.1999 16.0764 17.3826C16.152 17.5653 16.2802 17.7214 16.4446 17.8313C16.609 17.9412 16.8023 17.9999 17 17.9999H21L21.048 17.9989C21.3034 17.9874 21.5445 17.8782 21.7217 17.694C21.8989 17.5098 21.9985 17.2655 22 17.0099Z" fill="black"/>
</svg>
