<svg width="24" height="24" viewBox="0 0 24 24" fill="none" xmlns="http://www.w3.org/2000/svg">
<path d="M21.5652 4.82617H2.43478C1.64237 4.82617 1 5.46854 1 6.26095V17.7392C1 18.5316 1.64237 19.174 2.43478 19.174H21.5652C22.3576 19.174 23 18.5316 23 17.7392V6.26095C23 5.46854 22.3576 4.82617 21.5652 4.82617Z" fill="#E3E3E3"/>
<path d="M2.43478 4.82617C2.05426 4.82617 1.68931 4.97734 1.42024 5.24641C1.15116 5.51548 1 5.88043 1 6.26095V17.7392C1 18.1197 1.15116 18.4847 1.42024 18.7538C1.68931 19.0229 2.05426 19.174 2.43478 19.174H2.91304L17.2609 4.82617H2.43478Z" fill="white"/>
<path d="M21.5652 4.82617H2.43478C1.64237 4.82617 1 5.46854 1 6.26095V17.7392C1 18.5316 1.64237 19.174 2.43478 19.174H21.5652C22.3576 19.174 23 18.5316 23 17.7392V6.26095C23 5.46854 22.3576 4.82617 21.5652 4.82617Z" stroke="#191919" stroke-linecap="round" stroke-linejoin="round"/>
<path d="M20.1303 7.6958H16.3042V11.5219H20.1303V7.6958Z" fill="#FFEF5E"/>
<path d="M20.1303 7.6958H16.3042V11.5219H20.1303V7.6958Z" stroke="#191919" stroke-linecap="round" stroke-linejoin="round"/>
<path d="M4.82568 8.65234H6.73873" stroke="#191919" stroke-linecap="round" stroke-linejoin="round"/>
<path d="M4.82568 13.4321H13.4344" stroke="#191919" stroke-linecap="round" stroke-linejoin="round"/>
<path d="M4.82568 16.3042H16.3039" stroke="#191919" stroke-linecap="round" stroke-linejoin="round"/>
</svg>
