<svg width="24" height="24" viewBox="0 0 24 24" fill="none" xmlns="http://www.w3.org/2000/svg">
<g clip-path="url(#clip0_2_5520)">
<path d="M18.2156 8.17432C16.8833 10.4275 13.7454 10.7365 11.9992 8.78643C10.2523 10.7347 7.11616 10.4258 5.78275 8.17432C5.07163 8.98959 3.94427 9.30448 2.91357 8.97581V21.5579C2.91357 22.0861 3.3418 22.5143 3.87003 22.5143H20.1284C20.6566 22.5143 21.0848 22.0861 21.0848 21.5579V8.97959C20.0534 9.30844 18.9253 8.99184 18.2156 8.17432Z" fill="#66E1FF"/>
<path d="M11.9992 8.78643C10.2523 10.7347 7.11616 10.4258 5.78275 8.17432C5.07163 8.98959 3.94427 9.30448 2.91357 8.97581V21.5579C2.91691 21.8642 3.06935 22.1498 3.32198 22.323L15.6525 9.99145C14.3057 10.295 12.9012 9.83171 11.9992 8.78643Z" fill="#C2F3FF"/>
<path d="M21.0848 21.0854V21.5637C21.0848 22.0918 20.6566 22.5201 20.1284 22.5201H3.87003C3.3418 22.5201 2.91357 22.0918 2.91357 21.5637V21.0854" stroke="#191919" stroke-linecap="round" stroke-linejoin="round"/>
<path d="M2.90918 8.97461V11.0433" stroke="#191919" stroke-linecap="round" stroke-linejoin="round"/>
<path d="M21.0806 8.98193V11.0438" stroke="#191919" stroke-linecap="round" stroke-linejoin="round"/>
<path d="M6.74022 1.47998H3.50579C3.14361 1.48016 2.8126 1.68494 2.65079 2.00884L1.00195 5.30552H5.78386L6.74022 1.47998Z" fill="white"/>
<path d="M12.0002 5.30552V1.47998H6.74005L5.78369 5.30552H12.0002Z" fill="#FFBFC5"/>
<path d="M18.2159 5.30552L17.2596 1.47998H11.9995V5.30552H18.2159Z" fill="white"/>
<path d="M22.9975 5.30552L21.3487 2.00884C21.1869 1.68494 20.8559 1.48016 20.4937 1.47998H17.2593L18.2156 5.30552H22.9975Z" fill="#FFBFC5"/>
<path d="M5.78369 5.30518V8.17427C7.11656 10.4267 10.2536 10.7355 12.0001 8.78637V5.30518H5.78369Z" fill="#FF808C"/>
<path d="M18.2158 5.30518V8.17427C19.6131 9.75039 22.1926 9.22289 22.859 7.22466C22.9624 6.91455 23.0093 6.58832 22.9977 6.26154V5.30518H18.2158Z" fill="#FF808C"/>
<path d="M11.9995 5.30518V8.78637C13.7457 10.7364 16.8836 10.4275 18.2159 8.17427V5.30518H11.9995Z" fill="#E3E3E3"/>
<path d="M1.00165 5.30518V6.26154C0.93057 8.36815 3.16655 9.76175 5.02648 8.76998C5.31209 8.61772 5.56841 8.41608 5.78356 8.17427V5.30518H1.00165Z" fill="#E3E3E3"/>
<path d="M21.3498 2.00884C21.188 1.68494 20.857 1.48016 20.4948 1.47998H3.50579C3.14361 1.48016 2.8126 1.68494 2.65079 2.00884L1.00195 5.30552H22.9987L21.3498 2.00884Z" stroke="#191919" stroke-linecap="round" stroke-linejoin="round"/>
<path d="M22.9983 6.26154C23.0713 8.36734 20.8375 9.76256 18.9772 8.77304C18.6901 8.62024 18.4324 8.41752 18.2164 8.17427C16.884 10.4275 13.7461 10.7364 11.9999 8.78637C10.2537 10.7364 7.11579 10.4275 5.78346 8.17427C4.38211 9.74877 1.80178 9.21586 1.13895 7.21502C1.03714 6.90779 0.990657 6.58498 1.00155 6.26154V5.30518H22.9983V6.26154Z" stroke="#191919" stroke-linecap="round" stroke-linejoin="round"/>
<path d="M5.78369 8.1746V5.30552L6.74005 1.47998" stroke="#191919" stroke-linecap="round" stroke-linejoin="round"/>
<path d="M11.9995 8.79149V1.47998" stroke="#191919" stroke-linecap="round" stroke-linejoin="round"/>
<path d="M18.2156 8.1746V5.30552L17.2593 1.47998" stroke="#191919" stroke-linecap="round" stroke-linejoin="round"/>
<path d="M7.6958 18.6948V14.3911C7.69859 13.2868 8.89578 12.5996 9.85079 13.1541C10.2918 13.4102 10.5637 13.8812 10.565 14.3911V18.6948" stroke="#191919" stroke-linecap="round" stroke-linejoin="round"/>
<path d="M7.69141 15.8252H10.5606" stroke="#191919" stroke-linecap="round" stroke-linejoin="round"/>
<path d="M20.1284 18.6948H18.2156C17.6875 18.6948 17.2593 18.2666 17.2593 17.7384V13.9129C17.2593 13.3847 17.6874 12.9565 18.2156 12.9565H20.1284" stroke="#191919" stroke-linecap="round" stroke-linejoin="round"/>
<path d="M17.2549 15.8252H19.1676" stroke="#191919" stroke-linecap="round" stroke-linejoin="round"/>
<path d="M12.4775 12.9565V17.7384C12.4775 18.2666 12.9058 18.6948 13.4339 18.6948H15.3467" stroke="#191919" stroke-linecap="round" stroke-linejoin="round"/>
<path d="M5.78296 12.9561H4.1571C3.20002 12.9488 2.59386 13.9803 3.06605 14.8127C3.16344 14.9845 3.30048 15.1307 3.46562 15.2391L5.22536 16.4116C6.02568 16.9365 5.95766 18.1309 5.10292 18.5615C4.92598 18.6507 4.7302 18.6963 4.53199 18.6944H2.91379" stroke="#191919" stroke-linecap="round" stroke-linejoin="round"/>
</g>
<defs>
<clipPath id="clip0_2_5520">
<rect width="24" height="24" fill="white"/>
</clipPath>
</defs>
</svg>
