<svg width="24" height="24" viewBox="0 0 24 24" fill="none" xmlns="http://www.w3.org/2000/svg">
<path d="M18.8452 8.17699V3.70524C18.8452 3.58422 18.7971 3.46816 18.7115 3.38259C18.626 3.29702 18.5099 3.24894 18.3889 3.24894H16.5637C16.4427 3.24894 16.3266 3.29702 16.241 3.38259C16.1555 3.46816 16.1074 3.58422 16.1074 3.70524V5.65821L12.3092 2.16387C12.2249 2.08613 12.1145 2.04297 11.9998 2.04297C11.8851 2.04297 11.7746 2.08613 11.6904 2.16387L1.65179 11.5828C1.58409 11.6451 1.53679 11.7264 1.51609 11.816C1.4954 11.9056 1.50228 11.9994 1.53583 12.0851C1.56938 12.1707 1.62803 12.2442 1.7041 12.296C1.78016 12.3477 1.87009 12.3752 1.96208 12.3749H4.24358V21.0447C4.24358 21.2867 4.33973 21.5188 4.51087 21.69C4.68202 21.8611 4.91414 21.9572 5.15618 21.9572H18.8452C19.0873 21.9572 19.3194 21.8611 19.4905 21.69C19.6616 21.5188 19.7578 21.2867 19.7578 21.0447V12.3749H22.0393C22.1312 12.375 22.221 12.3473 22.2969 12.2955C22.3729 12.2437 22.4314 12.1702 22.4648 12.0846C22.4983 11.999 22.5051 11.9053 22.4843 11.8157C22.4636 11.7262 22.4163 11.645 22.3487 11.5828L18.8452 8.17699Z" fill="#66E1FF"/>
<path d="M1.96208 12.375H4.01177L11.6457 5.21202C11.7424 5.12359 11.8687 5.07454 11.9998 5.07454C12.1309 5.07454 12.2572 5.12359 12.3539 5.21202L16.7051 9.2156L19.8418 12.1013L20.1237 12.375H22.0393C22.1312 12.3751 22.221 12.3475 22.2969 12.2956C22.3729 12.2438 22.4314 12.1703 22.4648 12.0847C22.4983 11.9991 22.5051 11.9054 22.4843 11.8158C22.4636 11.7263 22.4163 11.6452 22.3487 11.5829L18.8452 8.17706V3.70532C18.8452 3.5843 18.7971 3.46823 18.7115 3.38266C18.626 3.29709 18.5099 3.24901 18.3889 3.24901H16.5637C16.4427 3.24901 16.3266 3.29709 16.241 3.38266C16.1555 3.46823 16.1074 3.5843 16.1074 3.70532V5.65828L12.3092 2.16484C12.2249 2.08711 12.1145 2.04395 11.9998 2.04395C11.8851 2.04395 11.7746 2.08711 11.6904 2.16484L1.65179 11.5829C1.58409 11.6452 1.53679 11.7265 1.51609 11.8161C1.4954 11.9057 1.50228 11.9995 1.53583 12.0852C1.56938 12.1708 1.62803 12.2443 1.7041 12.2961C1.78016 12.3478 1.87009 12.3753 1.96208 12.375Z" fill="#C2F3FF"/>
<path d="M18.8452 8.17699V3.70524C18.8452 3.58422 18.7971 3.46816 18.7115 3.38259C18.626 3.29702 18.5099 3.24894 18.3889 3.24894H16.5637C16.4427 3.24894 16.3266 3.29702 16.241 3.38259C16.1555 3.46816 16.1074 3.58422 16.1074 3.70524V5.65821L12.3092 2.16387C12.2249 2.08613 12.1145 2.04297 11.9998 2.04297C11.8851 2.04297 11.7746 2.08613 11.6904 2.16387L1.65179 11.5828C1.58409 11.6451 1.53679 11.7264 1.51609 11.816C1.4954 11.9056 1.50228 11.9994 1.53583 12.0851C1.56938 12.1707 1.62803 12.2442 1.7041 12.296C1.78016 12.3477 1.87009 12.3752 1.96208 12.3749H4.24358V21.0447C4.24358 21.2867 4.33973 21.5188 4.51087 21.69C4.68202 21.8611 4.91414 21.9572 5.15618 21.9572H18.8452C19.0873 21.9572 19.3194 21.8611 19.4905 21.69C19.6616 21.5188 19.7578 21.2867 19.7578 21.0447V12.3749H22.0393C22.1312 12.375 22.221 12.3473 22.2969 12.2955C22.3729 12.2437 22.4314 12.1702 22.4648 12.0846C22.4983 11.999 22.5051 11.9053 22.4843 11.8157C22.4636 11.7262 22.4163 11.645 22.3487 11.5828L18.8452 8.17699Z" stroke="#191919" stroke-linecap="round" stroke-linejoin="round"/>
</svg>
