<svg width="24" height="24" viewBox="0 0 24 24" fill="none" xmlns="http://www.w3.org/2000/svg">
<path d="M14.9945 8.99541C13.701 6.65332 11.8328 5.99658 9.49669 5.99658C8.08141 5.99801 6.71222 6.49988 5.63128 7.41344C4.55034 8.327 3.82729 9.59339 3.58999 10.9887L1.87366 9.0094C1.80658 8.9338 1.71817 8.88031 1.62007 8.85599C1.52197 8.83167 1.4188 8.83766 1.32418 8.87317C1.22956 8.90868 1.14792 8.97204 1.09005 9.0549C1.03217 9.13776 1.00078 9.23621 1 9.33728V14.6512C0.999856 14.7532 1.0309 14.8528 1.08898 14.9366C1.14705 15.0204 1.22937 15.0845 1.3249 15.1201C1.42042 15.1558 1.52457 15.1614 1.62338 15.1362C1.72218 15.111 1.81091 15.0562 1.87766 14.9791L3.58599 12.9999C3.8234 14.3958 4.54704 15.6627 5.62881 16.5763C6.71058 17.49 8.08072 17.9914 9.49669 17.9919C10.6028 18.0626 11.7063 17.8184 12.6793 17.2876C13.6523 16.7569 14.4551 15.9613 14.9945 14.9931L10.9961 11.9943L14.9945 8.99541Z" fill="#66E1FF"/>
<path d="M5.26834 14.2194C5.26809 13.1329 5.5642 12.067 6.12478 11.1363C6.68535 10.2057 7.48916 9.44553 8.44966 8.93777C9.41016 8.43002 10.491 8.19387 11.5757 8.25475C12.6605 8.31564 13.708 8.67125 14.6057 9.2833L14.9945 8.99541C13.701 6.65332 11.8328 5.99658 9.49669 5.99658C8.08141 5.99801 6.71222 6.49988 5.63128 7.41344C4.55034 8.327 3.82729 9.59339 3.58999 10.9887L1.87366 9.0094C1.80658 8.9338 1.71817 8.88031 1.62007 8.85599C1.52197 8.83167 1.4188 8.83766 1.32418 8.87317C1.22956 8.90868 1.14792 8.97204 1.09005 9.0549C1.03217 9.13776 1.00078 9.23621 1 9.33728V14.6512C0.999856 14.7532 1.0309 14.8528 1.08898 14.9366C1.14705 15.0204 1.22937 15.0845 1.3249 15.1201C1.42042 15.1558 1.52457 15.1614 1.62338 15.1362C1.72218 15.111 1.81091 15.0562 1.87766 14.9791L3.58599 12.9999C3.83984 14.4721 4.63627 15.7956 5.81812 16.7094C5.45642 15.9291 5.26882 15.0795 5.26834 14.2194Z" fill="#C2F3FF"/>
<path d="M14.9945 8.99541C13.701 6.65332 11.8328 5.99658 9.49669 5.99658C8.08141 5.99801 6.71222 6.49988 5.63128 7.41344C4.55034 8.327 3.82729 9.59339 3.58999 10.9887L1.87366 9.0094C1.80658 8.9338 1.71817 8.88031 1.62007 8.85599C1.52197 8.83167 1.4188 8.83766 1.32418 8.87317C1.22956 8.90868 1.14792 8.97204 1.09005 9.0549C1.03217 9.13776 1.00078 9.23621 1 9.33728V14.6512C0.999856 14.7532 1.0309 14.8528 1.08898 14.9366C1.14705 15.0204 1.22937 15.0845 1.3249 15.1201C1.42042 15.1558 1.52457 15.1614 1.62338 15.1362C1.72218 15.111 1.81091 15.0562 1.87766 14.9791L3.58599 12.9999C3.8234 14.3958 4.54704 15.6627 5.62881 16.5763C6.71058 17.49 8.08072 17.9914 9.49669 17.9919C10.6028 18.0626 11.7063 17.8184 12.6793 17.2876C13.6523 16.7569 14.4551 15.9613 14.9945 14.9931L10.9961 11.9943L14.9945 8.99541Z" stroke="#191919" stroke-linecap="round" stroke-linejoin="round"/>
<path d="M8.99678 12.9935L7.72128 13.6313C7.64508 13.6695 7.56038 13.6875 7.47523 13.6838C7.39008 13.68 7.30732 13.6545 7.23479 13.6097C7.16227 13.565 7.10241 13.5024 7.06088 13.4279C7.01936 13.3535 6.99756 13.2697 6.99756 13.1845V10.3006C6.99756 10.2154 7.01936 10.1315 7.06088 10.0571C7.10241 9.98266 7.16227 9.92008 7.23479 9.87531C7.30732 9.83053 7.39008 9.80505 7.47523 9.80127C7.56038 9.7975 7.64508 9.81556 7.72128 9.85375L8.99678 10.4945" stroke="#191919" stroke-linecap="round" stroke-linejoin="round"/>
<path d="M20.9931 9.99464C20.5687 9.99522 20.1557 10.1313 19.814 10.383C19.4724 10.6348 19.2201 10.989 19.0938 11.3941L17.7704 10.5115C17.6951 10.4614 17.6076 10.4326 17.5173 10.4283C17.427 10.424 17.3373 10.4443 17.2575 10.4869C17.1778 10.5296 17.1112 10.5931 17.0647 10.6706C17.0183 10.7482 16.9937 10.8369 16.9937 10.9273V13.0585C16.9937 13.1489 17.0183 13.2376 17.0647 13.3151C17.1112 13.3927 17.1778 13.4562 17.2575 13.4988C17.3373 13.5415 17.427 13.5618 17.5173 13.5574C17.6076 13.5531 17.6951 13.5244 17.7704 13.4743L19.0938 12.5937C19.2048 12.9465 19.4114 13.2616 19.6908 13.5039C19.9701 13.7463 20.3112 13.9064 20.6762 13.9665C21.0411 14.0266 21.4155 13.9843 21.7578 13.8443C22.1001 13.7043 22.3969 13.472 22.6151 13.1734C22.8333 12.8748 22.9644 12.5216 22.9939 12.1529C23.0233 11.7842 22.9498 11.4146 22.7817 11.0852C22.6137 10.7558 22.3575 10.4794 22.0417 10.2869C21.7259 10.0944 21.3629 9.99318 20.9931 9.99464Z" fill="#FFEF5E" stroke="#191919" stroke-linecap="round" stroke-linejoin="round"/>
<path d="M11.496 8.74542C11.4632 8.74542 11.4307 8.73896 11.4004 8.7264C11.37 8.71384 11.3425 8.69543 11.3193 8.67222C11.2961 8.64902 11.2777 8.62147 11.2651 8.59115C11.2526 8.56083 11.2461 8.52834 11.2461 8.49552C11.2461 8.4627 11.2526 8.4302 11.2651 8.39988C11.2777 8.36956 11.2961 8.34202 11.3193 8.31881C11.3425 8.2956 11.37 8.2772 11.4004 8.26464C11.4307 8.25208 11.4632 8.24561 11.496 8.24561" stroke="#191919"/>
<path d="M11.4961 8.74542C11.5289 8.74542 11.5614 8.73896 11.5917 8.7264C11.622 8.71384 11.6496 8.69543 11.6728 8.67222C11.696 8.64902 11.7144 8.62147 11.727 8.59115C11.7395 8.56083 11.746 8.52834 11.746 8.49552C11.746 8.4627 11.7395 8.4302 11.727 8.39988C11.7144 8.36956 11.696 8.34202 11.6728 8.31881C11.6496 8.2956 11.622 8.2772 11.5917 8.26464C11.5614 8.25208 11.5289 8.24561 11.4961 8.24561" stroke="#191919"/>
</svg>
