<svg width="24" height="24" viewBox="0 0 24 24" fill="none" xmlns="http://www.w3.org/2000/svg">
<path d="M12.2723 12.4783C13.4074 12.4783 14.517 12.1417 15.4608 11.511C16.4046 10.8804 17.1403 9.98409 17.5746 8.9354C18.009 7.88672 18.1226 6.73277 17.9012 5.61948C17.6797 4.50621 17.1332 3.48359 16.3305 2.68095C15.5279 1.87833 14.5052 1.33172 13.3919 1.11028C12.2787 0.888832 11.1248 1.00249 10.0761 1.43687C9.02738 1.87125 8.13104 2.60685 7.50043 3.55064C6.8698 4.49444 6.5332 5.60403 6.5332 6.73913C6.5332 8.26124 7.13786 9.72102 8.21416 10.7973C9.29045 11.8736 10.7502 12.4783 12.2723 12.4783Z" fill="#FFEF5E"/>
<path d="M12.273 1C11.1308 1.00026 10.0146 1.34135 9.06735 1.9796C8.12008 2.61786 7.38483 3.52425 6.95566 4.58278C6.5265 5.64131 6.42296 6.80383 6.65828 7.92154C6.8936 9.03927 7.4571 10.0613 8.27665 10.857L16.3908 2.74183C15.8565 2.18991 15.2166 1.75125 14.5092 1.45199C13.8016 1.15273 13.0412 0.999022 12.273 1Z" fill="#FFF9BF"/>
<path d="M16.6326 13.8338C15.5641 14.5474 15.0132 15.8483 16.6326 16.9416C17.5212 19.1617 19.1721 18.5677 20.1497 17.5346C20.6981 16.7458 21.0531 15.8389 21.186 14.8874C21.3189 13.9359 21.2261 12.9666 20.9149 12.0576C19.3558 13.236 17.964 12.9462 16.6326 13.8338Z" fill="#78EB7B" stroke="#191919" stroke-linecap="round" stroke-linejoin="round"/>
<path d="M4.96349 17.7011C5.75836 18.5677 7.01236 18.8824 7.7728 17.264C9.65523 16.1496 8.88332 14.7397 7.81488 14.0013C7.02461 13.616 6.15472 13.4222 5.27562 13.4357C4.39654 13.4492 3.53298 13.6694 2.75488 14.0787C4.03949 15.3241 3.97349 16.6221 4.96349 17.7011Z" fill="#78EB7B" stroke="#191919" stroke-linecap="round" stroke-linejoin="round"/>
<path d="M12.2723 12.4783C13.4074 12.4783 14.517 12.1417 15.4608 11.511C16.4046 10.8804 17.1403 9.98409 17.5746 8.9354C18.009 7.88672 18.1226 6.73277 17.9012 5.61948C17.6797 4.50621 17.1332 3.48359 16.3305 2.68095C15.5279 1.87833 14.5052 1.33172 13.3919 1.11028C12.2787 0.888832 11.1248 1.00249 10.0761 1.43687C9.02738 1.87125 8.13104 2.60685 7.50043 3.55064C6.8698 4.49444 6.5332 5.60403 6.5332 6.73913C6.5332 8.26124 7.13786 9.72102 8.21416 10.7973C9.29045 11.8736 10.7502 12.4783 12.2723 12.4783Z" stroke="#191919" stroke-linecap="round" stroke-linejoin="round"/>
<path d="M12.2725 12.4785V23.0002" stroke="#191919" stroke-linecap="round" stroke-linejoin="round"/>
<path d="M12.2725 22.9999C12.2725 22.9999 14.6638 17.739 18.4899 15.3477" stroke="#191919" stroke-linecap="round" stroke-linejoin="round"/>
<path d="M12.2723 22.0436C12.2723 22.0436 11.3158 18.6957 6.5332 15.8262" stroke="#191919" stroke-linecap="round" stroke-linejoin="round"/>
<path d="M13.7078 3.86963H11.7632C11.4652 3.86984 11.1765 3.97374 10.9467 4.1635C10.717 4.35327 10.5603 4.61708 10.5038 4.90969C10.4472 5.2023 10.4943 5.50546 10.6368 5.76719C10.7793 6.02893 11.0085 6.23291 11.285 6.34415L13.2592 7.13424C13.5357 7.24548 13.7648 7.44946 13.9074 7.71119C14.0499 7.97292 14.0969 8.27608 14.0404 8.56869C13.9839 8.8613 13.8272 9.12511 13.5975 9.31489C13.3677 9.50465 13.079 9.60855 12.781 9.60876H10.8383" stroke="#191919" stroke-linecap="round" stroke-linejoin="round"/>
<path d="M12.2725 10.5654V9.60889" stroke="#191919" stroke-linecap="round" stroke-linejoin="round"/>
<path d="M12.2725 3.86961V2.91309" stroke="#191919" stroke-linecap="round" stroke-linejoin="round"/>
</svg>
