<svg width="24" height="24" viewBox="0 0 24 24" fill="none" xmlns="http://www.w3.org/2000/svg">
<path d="M22.0433 2.91309H14.3911C13.8628 2.91309 13.4346 3.34135 13.4346 3.86962V20.1306C13.4346 20.6589 13.8628 21.0871 14.3911 21.0871H22.0433C22.5716 21.0871 22.9999 20.6589 22.9999 20.1306V3.86962C22.9999 3.34135 22.5716 2.91309 22.0433 2.91309Z" fill="#E3E3E3"/>
<path d="M22.9999 4.82615V3.86962C22.9999 3.61593 22.899 3.37264 22.7197 3.19325C22.5403 3.01387 22.297 2.91309 22.0433 2.91309H14.3911C14.1374 2.91309 13.8941 3.01387 13.7147 3.19325C13.5354 3.37264 13.4346 3.61593 13.4346 3.86962V4.82615H22.9999Z" fill="white"/>
<path d="M13.4349 7.6958H1.95653C1.42825 7.6958 1 8.12405 1 8.65233V17.2611C1 17.7894 1.42825 18.2176 1.95653 18.2176H13.4349C13.9632 18.2176 14.3914 17.7894 14.3914 17.2611V8.65233C14.3914 8.12405 13.9632 7.6958 13.4349 7.6958Z" fill="#66E1FF"/>
<path d="M1.95653 18.2176H2.43479L12.9566 7.6958H1.95653C1.70284 7.6958 1.45955 7.79658 1.28016 7.97596C1.10078 8.15534 1 8.39864 1 8.65233V17.2611C1 17.5148 1.10078 17.7581 1.28016 17.9375C1.45955 18.1168 1.70284 18.2176 1.95653 18.2176Z" fill="#C2F3FF"/>
<path d="M13.4349 7.6958H1.95653C1.42825 7.6958 1 8.12405 1 8.65233V17.2611C1 17.7894 1.42825 18.2176 1.95653 18.2176H13.4349C13.9632 18.2176 14.3914 17.7894 14.3914 17.2611V8.65233C14.3914 8.12405 13.9632 7.6958 13.4349 7.6958Z" stroke="#191919" stroke-linecap="round" stroke-linejoin="round"/>
<path d="M7.69531 18.2173V21.0869" stroke="#191919" stroke-linecap="round" stroke-linejoin="round"/>
<path d="M4.82178 21.0869H10.561" stroke="#191919" stroke-linecap="round" stroke-linejoin="round"/>
<path d="M13.4346 5.78268V3.86962C13.4346 3.61593 13.5354 3.37264 13.7147 3.19325C13.8941 3.01387 14.1374 2.91309 14.3911 2.91309H22.0433C22.297 2.91309 22.5403 3.01387 22.7197 3.19325C22.899 3.37264 22.9999 3.61593 22.9999 3.86962V20.1306C22.9999 20.3843 22.899 20.6276 22.7197 20.807C22.5403 20.9863 22.297 21.0871 22.0433 21.0871H14.3911C14.1374 21.0871 13.8941 20.9863 13.7147 20.807C13.5354 20.6276 13.4346 20.3843 13.4346 20.1306" stroke="#191919" stroke-linecap="round" stroke-linejoin="round"/>
<path d="M22.9999 6.73877H16.3042" stroke="#191919" stroke-linecap="round" stroke-linejoin="round"/>
<path d="M22.9999 9.6084H16.3042" stroke="#191919" stroke-linecap="round" stroke-linejoin="round"/>
<path d="M18.2175 17.2607C19.0099 17.2607 19.6523 16.6183 19.6523 15.8259C19.6523 15.0335 19.0099 14.3911 18.2175 14.3911C17.4251 14.3911 16.7827 15.0335 16.7827 15.8259C16.7827 16.6183 17.4251 17.2607 18.2175 17.2607Z" fill="#808080" stroke="#191919" stroke-linecap="round" stroke-linejoin="round"/>
</svg>
