<svg width="24" height="24" viewBox="0 0 24 24" fill="none" xmlns="http://www.w3.org/2000/svg">
<g clip-path="url(#clip0_2_5463)">
<path d="M9.13756 17.261C13.6242 17.261 17.2614 13.6238 17.2614 9.13706C17.2614 4.6503 13.6242 1.01318 9.13756 1.01318C4.65089 1.01318 1.01367 4.6503 1.01367 9.13706C1.01367 13.6238 4.65089 17.261 9.13756 17.261Z" fill="#FFEF5E"/>
<path d="M9.14068 1.01319C7.53659 1.01253 5.9682 1.48683 4.63321 2.3762C3.29831 3.26566 2.2565 4.53029 1.63922 6.01088C1.02195 7.49148 0.85685 9.12162 1.16465 10.696C1.47244 12.2703 2.23944 13.7181 3.36896 14.8572L14.858 3.3691C13.339 1.85833 11.2831 1.01122 9.14068 1.01319Z" fill="#FFF9BF"/>
<path d="M5.40843 16.3635C3.88333 15.5782 2.64569 14.3307 1.87259 12.7994C1.0995 11.2681 0.830498 9.53139 1.10409 7.83801C1.37778 6.14463 2.18001 4.58111 3.39601 3.3712C4.6121 2.16129 6.17965 1.36703 7.87444 1.10205C9.56922 0.836982 11.3045 1.11479 12.8317 1.89566C14.3591 2.67653 15.6004 3.92054 16.378 5.44958C17.1555 6.97862 17.4294 8.71445 17.1608 10.4086C16.8921 12.1029 16.0944 13.6687 14.8818 14.8822" stroke="#191919" stroke-linecap="round" stroke-linejoin="round"/>
<path d="M6.27344 8.65918H11.0522" stroke="#191919" stroke-linecap="round" stroke-linejoin="round"/>
<path d="M12.064 6.5568C12.0749 6.32668 12.0391 6.09684 11.9585 5.88106C11.878 5.66518 11.7545 5.46804 11.5955 5.30135C11.4366 5.13467 11.2455 5.00199 11.0337 4.91129C10.822 4.82069 10.5941 4.77393 10.3638 4.77393C10.1334 4.77393 9.90551 4.82069 9.69375 4.91129C9.48209 5.00199 9.29095 5.13467 9.13195 5.30135C8.97294 5.46804 8.84954 5.66518 8.76896 5.88106C8.68848 6.09684 8.65259 6.32668 8.66346 6.5568V10.4199C8.66346 11.8421 8.17511 13.441 6.75195 13.441H12.0086" stroke="#191919" stroke-linecap="round" stroke-linejoin="round"/>
<path d="M2.4502 22.9957L10.4498 15.8849C10.6184 15.7352 10.8346 15.6499 11.0601 15.644C11.2855 15.6383 11.5057 15.7124 11.6818 15.8534L15.1856 18.6566C15.3649 18.7999 15.5897 18.8741 15.819 18.8653C16.0484 18.8564 16.267 18.7655 16.4347 18.6088L22.9988 12.4824" stroke="#06B800" stroke-linecap="round" stroke-linejoin="round"/>
<path d="M19.1768 12.4824H22.9998V16.3055" stroke="#06B800" stroke-linecap="round" stroke-linejoin="round"/>
</g>
<defs>
<clipPath id="clip0_2_5463">
<rect width="24" height="24" fill="white"/>
</clipPath>
</defs>
</svg>
