<svg width="24" height="24" viewBox="0 0 24 24" fill="none" xmlns="http://www.w3.org/2000/svg">
<g clip-path="url(#clip0_2_5159)">
<path d="M23 16.9845C22.5738 17.1705 22.2112 17.4767 21.9564 17.8655C21.7016 18.2544 21.5656 18.709 21.5652 19.174C21.5652 18.5398 21.3132 17.9316 20.8648 17.4831C20.4163 17.0346 19.8081 16.7827 19.1739 16.7827C18.5397 16.7827 17.9315 17.0346 17.483 17.4831C17.0345 17.9316 16.7826 18.5398 16.7826 19.174C16.7826 18.5398 16.5306 17.9316 16.0822 17.4831C15.6337 17.0346 15.0255 16.7827 14.3913 16.7827C13.7571 16.7827 13.1489 17.0346 12.7004 17.4831C12.2519 17.9316 12 18.5398 12 19.174C12 18.86 11.9381 18.549 11.818 18.2589C11.6978 17.9688 11.5216 17.7052 11.2996 17.4831C11.0775 17.2611 10.8139 17.0849 10.5238 16.9647C10.2337 16.8446 9.92271 16.7827 9.60869 16.7827C8.97447 16.7827 8.36623 17.0346 7.91778 17.4831C7.46932 17.9316 7.21738 18.5398 7.21738 19.174C7.21738 18.86 7.15554 18.549 7.03536 18.2589C6.91518 17.9688 6.73904 17.7052 6.51699 17.4831C6.29493 17.2611 6.03132 17.0849 5.7412 16.9647C5.45106 16.8446 5.14011 16.7827 4.82608 16.7827C4.19187 16.7827 3.58363 17.0346 3.13517 17.4831C2.68672 17.9316 2.43478 18.5398 2.43478 19.174C2.43436 18.709 2.29841 18.2544 2.04358 17.8655C1.78877 17.4767 1.42611 17.1705 1 16.9845V23.0001H23V16.9845Z" fill="#FF808C"/>
<path d="M23 11.5217V2.91304C23 1.8565 22.1435 1 21.0869 1H2.91304C1.8565 1 1 1.8565 1 2.91304V11.5217C1 12.5783 1.8565 13.4348 2.91304 13.4348H21.0869C22.1435 13.4348 23 12.5783 23 11.5217Z" fill="#808080" stroke="#191919" stroke-linecap="round" stroke-linejoin="round"/>
<path d="M19.174 1H4.82617V13.4348H19.174V1Z" fill="#E3E3E3"/>
<path d="M18.2175 1H4.82617V13.4348H5.78269L18.2175 1Z" fill="white"/>
<path d="M19.174 1H4.82617V13.4348H19.174V1Z" stroke="#191919" stroke-linecap="round" stroke-linejoin="round"/>
<path d="M1 4.82617H4.82608" stroke="#191919" stroke-linecap="round" stroke-linejoin="round"/>
<path d="M1 9.60889H4.82608" stroke="#191919" stroke-linecap="round" stroke-linejoin="round"/>
<path d="M19.1738 4.82617H22.9999" stroke="#191919" stroke-linecap="round" stroke-linejoin="round"/>
<path d="M19.1738 9.60889H22.9999" stroke="#191919" stroke-linecap="round" stroke-linejoin="round"/>
<path d="M7.21747 19.6523C7.85169 19.6523 8.45993 19.9042 8.90838 20.3526C9.35684 20.8011 9.60878 21.4094 9.60878 22.0436V23.0001H4.82617V22.0436C4.82617 21.4094 5.07811 20.8011 5.52656 20.3526C5.97502 19.9042 6.58326 19.6523 7.21747 19.6523Z" stroke="#191919" stroke-linecap="round" stroke-linejoin="round"/>
<path d="M12.0002 19.6523C12.6344 19.6523 13.2426 19.9042 13.6911 20.3526C14.1395 20.8011 14.3915 21.4094 14.3915 22.0436V23.0001H9.60889V22.0436C9.60889 21.4094 9.86082 20.8011 10.3093 20.3526C10.7578 19.9042 11.366 19.6523 12.0002 19.6523Z" stroke="#191919" stroke-linecap="round" stroke-linejoin="round"/>
<path d="M16.7824 19.6523C17.4166 19.6523 18.0248 19.9042 18.4734 20.3526C18.9218 20.8011 19.1737 21.4094 19.1737 22.0436V23.0001H14.3911V22.0436C14.3911 21.4094 14.6431 20.8011 15.0915 20.3526C15.54 19.9042 16.1482 19.6523 16.7824 19.6523Z" stroke="#191919" stroke-linecap="round" stroke-linejoin="round"/>
<path d="M1 22.9998H4.82608V22.0433C4.82807 21.5984 4.7054 21.1619 4.47196 20.7832C4.23852 20.4046 3.90366 20.0989 3.50535 19.9009C3.10703 19.7028 2.6612 19.6203 2.21838 19.6627C1.77557 19.7051 1.35349 19.8707 1 20.1407" stroke="#191919" stroke-linecap="round" stroke-linejoin="round"/>
<path d="M22.9999 20.1407C22.6464 19.8707 22.2244 19.7051 21.7815 19.6627C21.3387 19.6203 20.8929 19.7028 20.4946 19.9009C20.0962 20.0989 19.7614 20.4046 19.528 20.7832C19.2946 21.1619 19.1718 21.5984 19.1739 22.0433V22.9998H22.9999" stroke="#191919" stroke-linecap="round" stroke-linejoin="round"/>
<path d="M23 16.9845C22.5738 17.1705 22.2112 17.4767 21.9564 17.8655C21.7016 18.2544 21.5656 18.709 21.5652 19.174C21.5652 18.5398 21.3132 17.9316 20.8648 17.4831C20.4163 17.0346 19.8081 16.7827 19.1739 16.7827C18.5397 16.7827 17.9315 17.0346 17.483 17.4831C17.0345 17.9316 16.7826 18.5398 16.7826 19.174C16.7826 18.5398 16.5306 17.9316 16.0822 17.4831C15.6337 17.0346 15.0255 16.7827 14.3913 16.7827C13.7571 16.7827 13.1489 17.0346 12.7004 17.4831C12.2519 17.9316 12 18.5398 12 19.174C12 18.86 11.9381 18.549 11.818 18.2589C11.6978 17.9688 11.5216 17.7052 11.2996 17.4831C11.0775 17.2611 10.8139 17.0849 10.5238 16.9647C10.2337 16.8446 9.92271 16.7827 9.60869 16.7827C8.97447 16.7827 8.36623 17.0346 7.91778 17.4831C7.46932 17.9316 7.21738 18.5398 7.21738 19.174C7.21738 18.86 7.15554 18.549 7.03536 18.2589C6.91518 17.9688 6.73904 17.7052 6.51699 17.4831C6.29493 17.2611 6.03132 17.0849 5.7412 16.9647C5.45106 16.8446 5.14011 16.7827 4.82608 16.7827C4.19187 16.7827 3.58363 17.0346 3.13517 17.4831C2.68672 17.9316 2.43478 18.5398 2.43478 19.174C2.43436 18.709 2.29841 18.2544 2.04358 17.8655C1.78877 17.4767 1.42611 17.1705 1 16.9845" stroke="#191919" stroke-linecap="round" stroke-linejoin="round"/>
<path d="M2.43457 19.1738V19.6521" stroke="#191919" stroke-linecap="round" stroke-linejoin="round"/>
<path d="M7.21729 19.1738V19.6521" stroke="#191919" stroke-linecap="round" stroke-linejoin="round"/>
<path d="M12 19.1738V19.6521" stroke="#191919" stroke-linecap="round" stroke-linejoin="round"/>
<path d="M16.7827 19.1738V19.6521" stroke="#191919" stroke-linecap="round" stroke-linejoin="round"/>
<path d="M21.5654 19.1738V19.6521" stroke="#191919" stroke-linecap="round" stroke-linejoin="round"/>
<path d="M15.5393 8.10885C15.7189 8.03899 15.8732 7.91649 15.9821 7.75742C16.0909 7.59834 16.1491 7.4101 16.1491 7.21737C16.1491 7.02464 16.0909 6.8364 15.9821 6.67731C15.8732 6.51824 15.7189 6.39575 15.5393 6.32589L9.30373 3.90207C9.23127 3.87393 9.15303 3.86388 9.0758 3.87278C8.99857 3.8817 8.92467 3.90929 8.86052 3.9532C8.79636 3.9971 8.74387 4.05598 8.70759 4.12474C8.67132 4.1935 8.65235 4.27007 8.65234 4.34781V10.087C8.65235 10.1647 8.67132 10.2413 8.70759 10.31C8.74387 10.3788 8.79636 10.4377 8.86052 10.4816C8.92467 10.5255 8.99857 10.5531 9.0758 10.562C9.15303 10.5709 9.23127 10.5608 9.30373 10.5327L15.5393 8.10885Z" fill="#66E1FF"/>
<path d="M8.79295 10.4246L13.632 5.58555L9.30373 3.90207C9.23127 3.87393 9.15303 3.86388 9.0758 3.87278C8.99857 3.8817 8.92467 3.90929 8.86052 3.9532C8.79636 3.9971 8.74387 4.05598 8.70759 4.12474C8.67132 4.1935 8.65235 4.27007 8.65234 4.34781V10.087C8.65262 10.2137 8.70319 10.3352 8.79295 10.4246Z" fill="#C2F3FF"/>
<path d="M15.5393 8.10885C15.7189 8.03899 15.8732 7.9165 15.9821 7.75742C16.0909 7.59834 16.1491 7.41011 16.1491 7.21737C16.1491 7.02464 16.0909 6.83639 15.9821 6.67731C15.8732 6.51824 15.7189 6.39575 15.5393 6.32589L9.30373 3.90207C9.23127 3.87393 9.15303 3.86388 9.0758 3.87278C8.99857 3.8817 8.92467 3.90929 8.86052 3.9532C8.79636 3.9971 8.74387 4.05598 8.70759 4.12474C8.67132 4.1935 8.65235 4.27007 8.65234 4.34781V10.087C8.65235 10.1647 8.67132 10.2413 8.70759 10.31C8.74387 10.3788 8.79636 10.4377 8.86052 10.4816C8.92467 10.5255 8.99857 10.5531 9.0758 10.562C9.15303 10.5709 9.23127 10.5608 9.30373 10.5327L15.5393 8.10885Z" stroke="#191919" stroke-linecap="round" stroke-linejoin="round"/>
</g>
<defs>
<clipPath id="clip0_2_5159">
<rect width="24" height="24" fill="white"/>
</clipPath>
</defs>
</svg>
